<svg xmlns="http://www.w3.org/2000/svg" viewBox="0 0 880 305" width="100%" height="100%">
  <defs>
    <filter id="dropShadow" x="-20%" y="-20%" width="140%" height="140%">
      <feDropShadow dx="0" dy="5" stdDeviation="5" flood-color="#000000" flood-opacity="0.7" />
      <feDropShadow dx="0" dy="1" stdDeviation="2" flood-color="#38bdf8" flood-opacity="0.12" />
    </filter>
  </defs>

  <style>
    @keyframes floatUp {
      0%, 100% { transform: translateY(0px); }
      50% { transform: translateY(-5px); }
    }
    @keyframes floatDown {
      0%, 100% { transform: translateY(0px); }
      50% { transform: translateY(5px); }
    }
  </style>


    <!-- Python Item -->
    <g style="animation: floatUp 5.2s ease-in-out infinite 0s;">
      <g filter="url(#dropShadow)">
        <rect x="29.0" y="14" width="52" height="52" rx="14" fill="#0d1117" stroke="#38bdf8" stroke-width="1.2" stroke-opacity="0.6" />
        <rect x="30.5" y="15.5" width="49" height="49" rx="12.5" fill="none" stroke="#ffffff" stroke-width="0.75" stroke-opacity="0.08" />
        
        <svg x="40.0" y="25.0" width="30" height="30" viewBox="0 0 128 128">
          <linearGradient id="python-original-a" gradientUnits="userSpaceOnUse" x1="70.252" y1="1237.476" x2="170.659" y2="1151.089" gradientTransform="matrix(.563 0 0 -.568 -29.215 707.817)"><stop offset="0" stop-color="#5A9FD4"/><stop offset="1" stop-color="#306998"/></linearGradient><linearGradient id="python-original-b" gradientUnits="userSpaceOnUse" x1="209.474" y1="1098.811" x2="173.62" y2="1149.537" gradientTransform="matrix(.563 0 0 -.568 -29.215 707.817)"><stop offset="0" stop-color="#FFD43B"/><stop offset="1" stop-color="#FFE873"/></linearGradient><path fill="url(#python-original-a)" d="M63.391 1.988c-4.222.02-8.252.379-11.8 1.007-10.45 1.846-12.346 5.71-12.346 12.837v9.411h24.693v3.137H29.977c-7.176 0-13.46 4.313-15.426 12.521-2.268 9.405-2.368 15.275 0 25.096 1.755 7.311 5.947 12.519 13.124 12.519h8.491V67.234c0-8.151 7.051-15.34 15.426-15.34h24.665c6.866 0 12.346-5.654 12.346-12.548V15.833c0-6.693-5.646-11.72-12.346-12.837-4.244-.706-8.645-1.027-12.866-1.008zM50.037 9.557c2.55 0 4.634 2.117 4.634 4.721 0 2.593-2.083 4.69-4.634 4.69-2.56 0-4.633-2.097-4.633-4.69-.001-2.604 2.073-4.721 4.633-4.721z" transform="translate(0 10.26)"/><path fill="url(#python-original-b)" d="M91.682 28.38v10.966c0 8.5-7.208 15.655-15.426 15.655H51.591c-6.756 0-12.346 5.783-12.346 12.549v23.515c0 6.691 5.818 10.628 12.346 12.547 7.816 2.297 15.312 2.713 24.665 0 6.216-1.801 12.346-5.423 12.346-12.547v-9.412H63.938v-3.138h37.012c7.176 0 9.852-5.005 12.348-12.519 2.578-7.735 2.467-15.174 0-25.096-1.774-7.145-5.161-12.521-12.348-12.521h-9.268zM77.809 87.927c2.561 0 4.634 2.097 4.634 4.692 0 2.602-2.074 4.719-4.634 4.719-2.55 0-4.633-2.117-4.633-4.719 0-2.595 2.083-4.692 4.633-4.692z" transform="translate(0 10.26)"/><radialGradient id="python-original-c" cx="1825.678" cy="444.45" r="26.743" gradientTransform="matrix(0 -.24 -1.055 0 532.979 557.576)" gradientUnits="userSpaceOnUse"><stop offset="0" stop-color="#B8B8B8" stop-opacity=".498"/><stop offset="1" stop-color="#7F7F7F" stop-opacity="0"/></radialGradient><path opacity=".444" fill="url(#python-original-c)" d="M97.309 119.597c0 3.543-14.816 6.416-33.091 6.416-18.276 0-33.092-2.873-33.092-6.416 0-3.544 14.815-6.417 33.092-6.417 18.275 0 33.091 2.872 33.091 6.417z"/>
        </svg>
      </g>
      <text x="55.0" y="88" fill="#c9d1d9" font-family="-apple-system, BlinkMacSystemFont, 'Segoe UI', Roboto, sans-serif" font-size="11.5" font-weight="600" text-anchor="middle" letter-spacing="0.2">Python</text>
    </g>

    <!-- FastAPI Item -->
    <g style="animation: floatDown 5.8s ease-in-out infinite -1.4s;">
      <g filter="url(#dropShadow)">
        <rect x="139.0" y="14" width="52" height="52" rx="14" fill="#0d1117" stroke="#009688" stroke-width="1.2" stroke-opacity="0.6" />
        <rect x="140.5" y="15.5" width="49" height="49" rx="12.5" fill="none" stroke="#ffffff" stroke-width="0.75" stroke-opacity="0.08" />
        
        <svg x="150.0" y="25.0" width="30" height="30" viewBox="0 0 128 128">
          <path d="M56.813 127.586c-1.903-.227-3.899-.52-4.434-.652a48.078 48.078 0 00-2.375-.5 36.042 36.042 0 01-2.703-.633c-4.145-1.188-4.442-1.285-7.567-2.563-2.875-1.172-8.172-3.91-9.984-5.156-.496-.344-.96-.621-1.031-.621-.07 0-1.23-.816-2.578-1.813-8.57-6.343-15.004-14.043-19.653-23.527-.8-1.629-1.453-3.074-1.453-3.21 0-.134-.144-.505-.32-.817-.363-.649-.88-2.047-1.297-3.492a20.047 20.047 0 00-.625-1.813c-.195-.46-.352-1.02-.352-1.246 0-.227-.195-.965-.433-1.645-.238-.675-.43-1.472-.43-1.77 0-.296-.187-1.32-.418-2.276C.598 73.492 0 67.379 0 63.953c0-3.422.598-9.535 1.16-11.894.23-.957.418-2 .418-2.32 0-.321.145-.95.32-1.4.18-.448.41-1.253.516-1.788.11-.535.36-1.457.563-2.055l.59-1.726c.433-1.293.835-2.387 1.027-2.813.11-.238.539-1.21.957-2.16.676-1.535 2.125-4.43 2.972-5.945.309-.555.426-.739 2.098-3.352 2.649-4.148 7.176-9.309 11.39-12.988 1.485-1.297 6.446-5.063 6.669-5.063.062 0 .53-.281 1.043-.625 1.347-.902 2.668-1.668 4.39-2.531a53.06 53.06 0 001.836-.953c.285-.164.82-.41 3.567-1.64.605-.27 1.257-.516 3.136-1.173.414-.144 1.246-.449 1.84-.672.598-.222 1.301-.406 1.563-.406.258 0 .937-.18 1.508-.402.57-.223 1.605-.477 2.304-.563.696-.082 1.621-.277 2.055-.43.43-.148 1.61-.34 2.621-.425a72.572 72.572 0 003.941-.465c2.688-.394 8.532-.394 11.192 0a75.02 75.02 0 003.781.445c.953.079 2.168.278 2.703.442.535.16 1.461.36 2.055.433.594.079 1.594.325 2.222.551.63.23 1.344.414 1.59.414s.754.137 1.125.309c.375.168 1.168.449 1.766.625.594.18 1.613.535 2.27.797.652.261 1.527.605 1.945.761.77.29 6.46 3.137 7.234 3.622 6.281 3.917 9.512 6.476 13.856 10.964 5.238 5.414 8.715 10.57 12.254 18.16.25.536.632 1.329.851 1.758.215.434.395.942.395 1.13 0 .19.18.76.402 1.269.602 1.383 1.117 2.957 1.36 4.16.12.59.343 1.32.495 1.621.153.3.332 1.063.403 1.688.07.624.277 1.648.453 2.269 1.02 3.531 1.527 13.934.91 18.535-.183 1.367-.39 3.02-.46 3.672-.118 1.117-.708 4.004-1.212 5.945l-.52 2.055c-.98 3.957-3.402 9.594-6.359 14.809-1.172 2.07-5.101 7.668-5.843 8.324-.067.058-.399.45-.735.863-.336.418-1.414 1.586-2.39 2.594-4.301 4.441-7.77 7.187-13.86 10.969-.722.449-6.847 3.441-7.992 3.906-.594.238-1.586.64-2.203.89-.613.247-1.297.454-1.512.458-.215.003-.781.195-1.258.425-.476.23-1.082.422-1.351.426-.266.004-1.043.192-1.727.418-.683.23-1.633.477-2.11.55-.476.075-1.495.278-2.269.45-.773.172-3.11.508-5.187.746a59.06 59.06 0 01-13.945-.031zm4.703-12.5c.3-.234.609-.7.691-1.027.18-.723 29.234-58.97 29.781-59.7.461-.617.504-1.605.082-1.953-.222-.187-3.004-.246-10.43-.234-5.57.012-10.253.016-10.406.012-.226-.008-.273-3.73-.25-19.672.016-10.817-.035-19.766-.113-19.89-.078-.126-.383-.227-.68-.227-.418 0-.613.18-.87.808-.485 1.168-1.825 3.82-8.348 16.485a3554.569 3554.569 0 00-4.055 7.89c-1.156 2.262-2.98 5.813-4.047 7.89a8751.248 8751.248 0 00-8.598 16.759c-4.933 9.636-5.53 10.785-5.742 11.039-.41.496-.633 1.64-.402 2.07.21.394.629.41 11.043.394 5.953-.007 10.863.024 10.914.07.137.141.086 37.31-.055 38.196-.093.582-.031.89.235 1.156.46.461.586.457 1.25-.066zm0 0" fill="#049688"/>
        </svg>
      </g>
      <text x="165.0" y="88" fill="#c9d1d9" font-family="-apple-system, BlinkMacSystemFont, 'Segoe UI', Roboto, sans-serif" font-size="11.5" font-weight="600" text-anchor="middle" letter-spacing="0.2">FastAPI</text>
    </g>

    <!-- Pytest Item -->
    <g style="animation: floatUp 5.0s ease-in-out infinite -3.2s;">
      <g filter="url(#dropShadow)">
        <rect x="249.0" y="14" width="52" height="52" rx="14" fill="#0d1117" stroke="#0a9edc" stroke-width="1.2" stroke-opacity="0.6" />
        <rect x="250.5" y="15.5" width="49" height="49" rx="12.5" fill="none" stroke="#ffffff" stroke-width="0.75" stroke-opacity="0.08" />
        
        <svg x="260.0" y="25.0" width="30" height="30" viewBox="0 0 128 128">
  <path d="M31.512 30.398h61.304a3.006 3.006 0 010 6.012H31.512a3.007 3.007 0 01-3.004-3.004 3.008 3.008 0 013.004-3.008zm0 0" fill="#696969"/>
  <path d="M32.047 24.32H44.37v2.844H32.047zm0 0" fill="#009fe3"/>
  <path d="M48.168 24.32h12.324v2.844H48.168zm0 0" fill="#c7d302"/>
  <path d="M64.07 24.32h12.328v2.844H64.07zm0 0" fill="#f07e16"/>
  <path d="M79.91 24.32h12.324v2.844H79.91zm0 15.22h12.324v20.835H79.91zm0 0" fill="#df2815"/>
  <path d="M64.07 39.54h12.352v33.847H64.07zm0 0" fill="#f07e16"/>
  <path d="M48.168 39.54h12.324v50.698H48.168zm0 0" fill="#c7d302"/>
  <path d="M32.047 39.54H44.37v61.792H32.047zm0 0" fill="#009fe3"/>
</svg>
      </g>
      <text x="275.0" y="88" fill="#c9d1d9" font-family="-apple-system, BlinkMacSystemFont, 'Segoe UI', Roboto, sans-serif" font-size="11.5" font-weight="600" text-anchor="middle" letter-spacing="0.2">Pytest</text>
    </g>

    <!-- PHP Item -->
    <g style="animation: floatDown 4.9s ease-in-out infinite -2.8s;">
      <g filter="url(#dropShadow)">
        <rect x="359.0" y="14" width="52" height="52" rx="14" fill="#0d1117" stroke="#777bb4" stroke-width="1.2" stroke-opacity="0.6" />
        <rect x="360.5" y="15.5" width="49" height="49" rx="12.5" fill="none" stroke="#ffffff" stroke-width="0.75" stroke-opacity="0.08" />
        
        <svg x="370.0" y="25.0" width="30" height="30" viewBox="0 0 128 128">
          <path fill="url(#a)" d="M0 64c0 18.593 28.654 33.667 64 33.667 35.346 0 64-15.074 64-33.667 0-18.593-28.655-33.667-64-33.667C28.654 30.333 0 45.407 0 64Z"/><path fill="#777bb3" d="M64 95.167c33.965 0 61.5-13.955 61.5-31.167 0-17.214-27.535-31.167-61.5-31.167S2.5 46.786 2.5 64c0 17.212 27.535 31.167 61.5 31.167Z"/><path d="M34.772 67.864c2.793 0 4.877-.515 6.196-1.53 1.306-1.006 2.207-2.747 2.68-5.175.44-2.27.272-3.854-.5-4.71-.788-.874-2.493-1.317-5.067-1.317h-4.464l-2.473 12.732zM20.173 83.547a.694.694 0 0 1-.68-.828l6.557-33.738a.695.695 0 0 1 .68-.561h14.134c4.442 0 7.748 1.206 9.827 3.585 2.088 2.39 2.734 5.734 1.917 9.935-.333 1.711-.905 3.3-1.7 4.724a15.818 15.818 0 0 1-3.128 3.92c-1.531 1.432-3.264 2.472-5.147 3.083-1.852.604-4.232.91-7.07.91h-5.724l-1.634 8.408a.695.695 0 0 1-.682.562z"/><path fill="#fff" d="M34.19 55.826h3.891c3.107 0 4.186.682 4.553 1.089.607.674.723 2.097.331 4.112-.439 2.257-1.253 3.858-2.42 4.756-1.194.92-3.138 1.386-5.773 1.386h-2.786l2.205-11.342zm6.674-8.1H26.731a1.39 1.39 0 0 0-1.364 1.123L18.81 82.588a1.39 1.39 0 0 0 1.363 1.653h7.35a1.39 1.39 0 0 0 1.363-1.124l1.525-7.846h5.151c2.912 0 5.364-.318 7.287-.944 1.977-.642 3.796-1.731 5.406-3.237a16.522 16.522 0 0 0 3.259-4.087c.831-1.487 1.429-3.147 1.775-4.931.86-4.423.161-7.964-2.076-10.524-2.216-2.537-5.698-3.823-10.349-3.823zM30.301 68.557h4.471c2.963 0 5.17-.557 6.62-1.675 1.451-1.116 2.428-2.98 2.938-5.591.485-2.508.264-4.277-.665-5.308-.931-1.03-2.791-1.546-5.584-1.546h-5.036l-2.743 14.12m10.563-19.445c4.252 0 7.353 1.117 9.303 3.348 1.95 2.232 2.536 5.347 1.76 9.346-.322 1.648-.863 3.154-1.625 4.518-.764 1.366-1.76 2.614-2.991 3.747-1.468 1.373-3.097 2.352-4.892 2.935-1.794.584-4.08.875-6.857.875h-6.296l-1.743 8.97h-7.35l6.558-33.739h14.133"/><path d="M69.459 74.577a.694.694 0 0 1-.682-.827l2.9-14.928c.277-1.42.209-2.438-.19-2.87-.245-.263-.979-.704-3.15-.704h-5.256l-3.646 18.768a.695.695 0 0 1-.683.56h-7.29a.695.695 0 0 1-.683-.826l6.558-33.739a.695.695 0 0 1 .682-.561h7.29a.695.695 0 0 1 .683.826L64.41 48.42h5.653c4.307 0 7.227.758 8.928 2.321 1.733 1.593 2.275 4.14 1.608 7.573l-3.051 15.702a.695.695 0 0 1-.682.56h-7.407z"/><path fill="#fff" d="M65.31 38.755h-7.291a1.39 1.39 0 0 0-1.364 1.124l-6.557 33.738a1.39 1.39 0 0 0 1.363 1.654h7.291a1.39 1.39 0 0 0 1.364-1.124l3.537-18.205h4.682c2.168 0 2.624.463 2.641.484.132.14.305.795.019 2.264l-2.9 14.927a1.39 1.39 0 0 0 1.364 1.654h7.408a1.39 1.39 0 0 0 1.363-1.124l3.051-15.7c.715-3.686.103-6.45-1.82-8.217-1.836-1.686-4.91-2.505-9.398-2.505h-4.81l1.421-7.315a1.39 1.39 0 0 0-1.364-1.655zm0 1.39-1.743 8.968h6.496c4.087 0 6.907.714 8.457 2.14 1.553 1.426 2.017 3.735 1.398 6.93l-3.052 15.699h-7.407l2.901-14.928c.33-1.698.208-2.856-.365-3.474-.573-.617-1.793-.926-3.658-.926h-5.829l-3.756 19.327H51.46l6.558-33.739h7.292z"/><path d="M92.136 67.864c2.793 0 4.878-.515 6.198-1.53 1.304-1.006 2.206-2.747 2.679-5.175.44-2.27.273-3.854-.5-4.71-.788-.874-2.493-1.317-5.067-1.317h-4.463l-2.475 12.732zM77.54 83.547a.694.694 0 0 1-.682-.828l6.557-33.738a.695.695 0 0 1 .682-.561H98.23c4.442 0 7.748 1.206 9.826 3.585 2.089 2.39 2.734 5.734 1.917 9.935a15.878 15.878 0 0 1-1.699 4.724 15.838 15.838 0 0 1-3.128 3.92c-1.53 1.432-3.265 2.472-5.147 3.083-1.852.604-4.232.91-7.071.91h-5.723l-1.633 8.408a.695.695 0 0 1-.683.562z"/><path fill="#fff" d="M91.555 55.826h3.891c3.107 0 4.186.682 4.552 1.089.61.674.724 2.097.333 4.112-.44 2.257-1.254 3.858-2.421 4.756-1.195.92-3.139 1.386-5.773 1.386h-2.786l2.204-11.342zm6.674-8.1H84.096a1.39 1.39 0 0 0-1.363 1.123l-6.558 33.739a1.39 1.39 0 0 0 1.364 1.653h7.35a1.39 1.39 0 0 0 1.363-1.124l1.525-7.846h5.15c2.911 0 5.364-.318 7.286-.944 1.978-.642 3.797-1.731 5.408-3.238a16.52 16.52 0 0 0 3.258-4.086c.832-1.487 1.428-3.147 1.775-4.931.86-4.423.162-7.964-2.076-10.524-2.216-2.537-5.697-3.823-10.35-3.823zM87.666 68.557h4.47c2.964 0 5.17-.557 6.622-1.675 1.45-1.116 2.428-2.98 2.936-5.591.487-2.508.266-4.277-.665-5.308-.93-1.03-2.791-1.546-5.583-1.546h-5.035Zm10.563-19.445c4.251 0 7.354 1.117 9.303 3.348 1.95 2.232 2.537 5.347 1.759 9.346-.32 1.648-.862 3.154-1.624 4.518-.763 1.366-1.76 2.614-2.992 3.747-1.467 1.373-3.097 2.352-4.892 2.935-1.793.584-4.078.875-6.856.875h-6.295l-1.745 8.97h-7.35l6.558-33.739h14.133"/><defs><radialGradient id="a" cx="0" cy="0" r="1" gradientTransform="matrix(84.04136 0 0 84.04136 38.426 42.169)" gradientUnits="userSpaceOnUse"><stop stop-color="#AEB2D5"/><stop offset=".3" stop-color="#AEB2D5"/><stop offset=".75" stop-color="#484C89"/><stop offset="1" stop-color="#484C89"/></radialGradient></defs>
        </svg>
      </g>
      <text x="385.0" y="88" fill="#c9d1d9" font-family="-apple-system, BlinkMacSystemFont, 'Segoe UI', Roboto, sans-serif" font-size="11.5" font-weight="600" text-anchor="middle" letter-spacing="0.2">PHP</text>
    </g>

    <!-- Laravel Item -->
    <g style="animation: floatUp 5.4s ease-in-out infinite -0.7s;">
      <g filter="url(#dropShadow)">
        <rect x="469.0" y="14" width="52" height="52" rx="14" fill="#0d1117" stroke="#ff2d20" stroke-width="1.2" stroke-opacity="0.6" />
        <rect x="470.5" y="15.5" width="49" height="49" rx="12.5" fill="none" stroke="#ffffff" stroke-width="0.75" stroke-opacity="0.08" />
        
        <svg x="480.0" y="25.0" width="30" height="30" viewBox="0 0 128 128">
          <path fill="#f0513f" d="M27.271.11c-.2.078-5.82 3.28-12.487 7.112-8.078 4.644-12.227 7.09-12.449 7.32-.19.225-.34.482-.438.76-.167.564-.179 82.985-.01 83.578.061.23.26.568.44.754.436.46 48.664 28.19 49.25 28.324.272.065.577.054.88-.03.658-.165 48.76-27.834 49.188-28.286.175-.195.375-.532.44-.761.084-.273.115-4.58.115-13.655v-13.26l11.726-6.735c11.056-6.357 11.733-6.755 12.017-7.191l.29-.47V43.287c0-15.548.03-14.673-.585-15.235-.165-.146-5.798-3.433-12.53-7.31L100.89 13.71h-1.359l-11.963 6.87c-6.586 3.788-12.184 7.027-12.457 7.203-.272.18-.597.512-.73.753l-.242.417-.054 13.455-.048 13.46-9.879 5.69c-5.434 3.124-9.957 5.71-10.053 5.734-.175.049-.187-1.232-.187-25.966V15.293l-.26-.447c-.326-.545 1.136.324-13.544-8.114C27.803-.348 28.098-.2 27.27.11zm11.317 10.307c5.15 2.955 9.364 5.4 9.364 5.43 0 .031-4.516 2.641-10.035 5.813l-10.041 5.765-10.023-5.764c-5.507-3.173-10.02-5.783-10.02-5.814 0-.03 4.505-2.64 10.013-5.805l9.999-5.752.69.376c3.357 1.907 6.708 3.824 10.053 5.751zm71.668 13.261c5.422 3.122 9.908 5.702 9.95 5.744.114.103-19.774 11.535-20.046 11.523-.272-.008-19.915-11.335-19.907-11.473.01-.157 19.773-11.527 19.973-11.496.091.022 4.607 2.59 10.03 5.702zM16.3 25.328l9.558 5.503.055 27.247.05 27.252.233.368c.122.194.352.459.52.581.158.115 5.477 3.146 11.818 6.724l11.52 6.506v11.527c0 6.326-.043 11.516-.097 11.516-.041 0-10-5.699-22.124-12.676L5.793 97.201l-.03-38.966-.019-38.954.49.271c.283.15 4.807 2.748 10.065 5.775zm33.754 19.18v25.109l-.387.253c-.525.332-19.667 11.335-19.732 11.335-.03 0-.054-11.336-.054-25.193l.012-25.182 10-5.752c5.499-3.165 10.034-5.733 10.088-5.714.039.024.073 11.34.073 25.144zm38.15-5.775 10.023 5.763V55.92c0 10.838-.011 11.42-.176 11.357-.107-.041-4.642-2.64-10.083-5.774l-9.91-5.69v-11.42c0-6.287.032-11.424.062-11.424.043 0 4.577 2.592 10.084 5.764zm34.164 5.587c0 6.254-.042 11.412-.084 11.462-.072.115-19.896 11.538-20.022 11.538-.031 0-.062-5.135-.062-11.423v-11.42l10-5.756c5.507-3.16 10.042-5.752 10.084-5.752.053 0 .084 5.105.084 11.351zM95.993 70.933 52.005 96.04 32.056 84.693S76 59.277 76.176 59.343zm2.215 14.827-.034 11.442-22.028 12.676c-12.12 6.976-22.082 12.675-22.132 12.675-.053 0-.095-4.658-.095-11.516V99.51l22.08-12.592c12.132-6.923 22.101-12.59 22.154-12.602.043 0 .062 5.148.054 11.443z"/>
        </svg>
      </g>
      <text x="495.0" y="88" fill="#c9d1d9" font-family="-apple-system, BlinkMacSystemFont, 'Segoe UI', Roboto, sans-serif" font-size="11.5" font-weight="600" text-anchor="middle" letter-spacing="0.2">Laravel</text>
    </g>

    <!-- PostgreSQL Item -->
    <g style="animation: floatDown 5.1s ease-in-out infinite -3.5s;">
      <g filter="url(#dropShadow)">
        <rect x="579.0" y="14" width="52" height="52" rx="14" fill="#0d1117" stroke="#336791" stroke-width="1.2" stroke-opacity="0.6" />
        <rect x="580.5" y="15.5" width="49" height="49" rx="12.5" fill="none" stroke="#ffffff" stroke-width="0.75" stroke-opacity="0.08" />
        
        <svg x="590.0" y="25.0" width="30" height="30" viewBox="0 0 128 128">
          <path d="M93.809 92.112c.785-6.533.55-7.492 5.416-6.433l1.235.108c3.742.17 8.637-.602 11.513-1.938 6.191-2.873 9.861-7.668 3.758-6.409-13.924 2.873-14.881-1.842-14.881-1.842 14.703-21.815 20.849-49.508 15.543-56.287-14.47-18.489-39.517-9.746-39.936-9.52l-.134.025c-2.751-.571-5.83-.912-9.289-.968-6.301-.104-11.082 1.652-14.709 4.402 0 0-44.683-18.409-42.604 23.151.442 8.841 12.672 66.898 27.26 49.362 5.332-6.412 10.484-11.834 10.484-11.834 2.558 1.699 5.622 2.567 8.834 2.255l.249-.212c-.078.796-.044 1.575.099 2.497-3.757 4.199-2.653 4.936-10.166 6.482-7.602 1.566-3.136 4.355-.221 5.084 3.535.884 11.712 2.136 17.238-5.598l-.22.882c1.474 1.18 1.375 8.477 1.583 13.69.209 5.214.558 10.079 1.621 12.948 1.063 2.868 2.317 10.256 12.191 8.14 8.252-1.764 14.561-4.309 15.136-27.985"/><path d="M75.458 125.256c-4.367 0-7.211-1.689-8.938-3.32-2.607-2.46-3.641-5.629-4.259-7.522l-.267-.79c-1.244-3.358-1.666-8.193-1.916-14.419-.038-.935-.064-1.898-.093-2.919-.021-.747-.047-1.684-.085-2.664a18.8 18.8 0 01-4.962 1.568c-3.079.526-6.389.356-9.84-.507-2.435-.609-4.965-1.871-6.407-3.82-4.203 3.681-8.212 3.182-10.396 2.453-3.853-1.285-7.301-4.896-10.542-11.037-2.309-4.375-4.542-10.075-6.638-16.943-3.65-11.96-5.969-24.557-6.175-28.693C4.292 23.698 7.777 14.44 15.296 9.129 27.157.751 45.128 5.678 51.68 7.915c4.402-2.653 9.581-3.944 15.433-3.851 3.143.051 6.136.327 8.916.823 2.9-.912 8.628-2.221 15.185-2.139 12.081.144 22.092 4.852 28.949 13.615 4.894 6.252 2.474 19.381.597 26.651-2.642 10.226-7.271 21.102-12.957 30.57 1.544.011 3.781-.174 6.961-.831 6.274-1.295 8.109 2.069 8.607 3.575 1.995 6.042-6.677 10.608-9.382 11.864-3.466 1.609-9.117 2.589-13.745 2.377l-.202-.013-1.216-.107-.12 1.014-.116.991c-.311 11.999-2.025 19.598-5.552 24.619-3.697 5.264-8.835 6.739-13.361 7.709-1.544.33-2.947.474-4.219.474zm-9.19-43.671c2.819 2.256 3.066 6.501 3.287 14.434.028.99.054 1.927.089 2.802.106 2.65.355 8.855 1.327 11.477.137.371.26.747.39 1.146 1.083 3.316 1.626 4.979 6.309 3.978 3.931-.843 5.952-1.599 7.534-3.851 2.299-3.274 3.585-9.86 3.821-19.575l4.783.116-4.75-.57.14-1.186c.455-3.91.783-6.734 3.396-8.602 2.097-1.498 4.486-1.353 6.389-1.01-2.091-1.58-2.669-3.433-2.823-4.193l-.399-1.965 1.121-1.663c6.457-9.58 11.781-21.354 14.609-32.304 2.906-11.251 2.02-17.226 1.134-18.356-11.729-14.987-32.068-8.799-34.192-8.097l-.359.194-1.8.335-.922-.191c-2.542-.528-5.366-.82-8.393-.869-4.756-.08-8.593 1.044-11.739 3.431l-2.183 1.655-2.533-1.043c-5.412-2.213-21.308-6.662-29.696-.721-4.656 3.298-6.777 9.76-6.305 19.207.156 3.119 2.275 14.926 5.771 26.377 4.831 15.825 9.221 21.082 11.054 21.693.32.108 1.15-.537 1.976-1.529a270.708 270.708 0 0110.694-12.07l2.77-2.915 3.349 2.225c1.35.897 2.839 1.406 4.368 1.502l7.987-6.812-1.157 11.808c-.026.265-.039.626.065 1.296l.348 2.238-1.51 1.688-.174.196 4.388 2.025 1.836-2.301z"/><path fill="#336791" d="M115.731 77.44c-13.925 2.873-14.882-1.842-14.882-1.842 14.703-21.816 20.849-49.51 15.545-56.287C101.924.823 76.875 9.566 76.457 9.793l-.135.024c-2.751-.571-5.83-.911-9.291-.967-6.301-.103-11.08 1.652-14.707 4.402 0 0-44.684-18.408-42.606 23.151.442 8.842 12.672 66.899 27.26 49.363 5.332-6.412 10.483-11.834 10.483-11.834 2.559 1.699 5.622 2.567 8.833 2.255l.25-.212c-.078.796-.042 1.575.1 2.497-3.758 4.199-2.654 4.936-10.167 6.482-7.602 1.566-3.136 4.355-.22 5.084 3.534.884 11.712 2.136 17.237-5.598l-.221.882c1.473 1.18 2.507 7.672 2.334 13.557-.174 5.885-.29 9.926.871 13.082 1.16 3.156 2.316 10.256 12.192 8.14 8.252-1.768 12.528-6.351 13.124-13.995.422-5.435 1.377-4.631 1.438-9.49l.767-2.3c.884-7.367.14-9.743 5.225-8.638l1.235.108c3.742.17 8.639-.602 11.514-1.938 6.19-2.871 9.861-7.667 3.758-6.408z"/><path fill="#fff" d="M75.957 122.307c-8.232 0-10.84-6.519-11.907-9.185-1.562-3.907-1.899-19.069-1.551-31.503a1.59 1.59 0 011.64-1.55 1.594 1.594 0 011.55 1.639c-.401 14.341.168 27.337 1.324 30.229 1.804 4.509 4.54 8.453 12.275 6.796 7.343-1.575 10.093-4.359 11.318-11.46.94-5.449 2.799-20.951 3.028-24.01a1.593 1.593 0 011.71-1.472 1.597 1.597 0 011.472 1.71c-.239 3.185-2.089 18.657-3.065 24.315-1.446 8.387-5.185 12.191-13.794 14.037-1.463.313-2.792.453-4 .454zM31.321 90.466a6.71 6.71 0 01-2.116-.35c-5.347-1.784-10.44-10.492-15.138-25.885-3.576-11.717-5.842-23.947-6.041-27.922-.589-11.784 2.445-20.121 9.02-24.778 13.007-9.216 34.888-.44 35.813-.062a1.596 1.596 0 01-1.207 2.955c-.211-.086-21.193-8.492-32.768-.285-5.622 3.986-8.203 11.392-7.672 22.011.167 3.349 2.284 15.285 5.906 27.149 4.194 13.742 8.967 22.413 13.096 23.79.648.216 2.62.873 5.439-2.517A245.272 245.272 0 0145.88 73.046a1.596 1.596 0 012.304 2.208c-.048.05-4.847 5.067-10.077 11.359-2.477 2.979-4.851 3.853-6.786 3.853zm69.429-13.445a1.596 1.596 0 01-1.322-2.487c14.863-22.055 20.08-48.704 15.612-54.414-5.624-7.186-13.565-10.939-23.604-11.156-7.433-.16-13.341 1.738-14.307 2.069l-.243.099c-.971.305-1.716-.227-1.997-.849a1.6 1.6 0 01.631-2.025c.046-.027.192-.089.429-.176l-.021.006.021-.007c1.641-.601 7.639-2.4 15.068-2.315 11.108.118 20.284 4.401 26.534 12.388 2.957 3.779 2.964 12.485.019 23.887-3.002 11.625-8.651 24.118-15.497 34.277-.306.457-.81.703-1.323.703zm.76 10.21c-2.538 0-4.813-.358-6.175-1.174-1.4-.839-1.667-1.979-1.702-2.584-.382-6.71 3.32-7.878 5.208-8.411-.263-.398-.637-.866-1.024-1.349-1.101-1.376-2.609-3.26-3.771-6.078-.182-.44-.752-1.463-1.412-2.648-3.579-6.418-11.026-19.773-6.242-26.612 2.214-3.165 6.623-4.411 13.119-3.716C97.6 28.837 88.5 10.625 66.907 10.271c-6.494-.108-11.82 1.889-15.822 5.93-8.96 9.049-8.636 25.422-8.631 25.586a1.595 1.595 0 11-3.19.084c-.02-.727-.354-17.909 9.554-27.916C53.455 9.272 59.559 6.96 66.96 7.081c13.814.227 22.706 7.25 27.732 13.101 5.479 6.377 8.165 13.411 8.386 15.759.165 1.746-1.088 2.095-1.341 2.147l-.576.013c-6.375-1.021-10.465-.312-12.156 2.104-3.639 5.201 3.406 17.834 6.414 23.229.768 1.376 1.322 2.371 1.576 2.985.988 2.396 2.277 4.006 3.312 5.3.911 1.138 1.7 2.125 1.982 3.283.131.23 1.99 2.98 13.021.703 2.765-.57 4.423-.083 4.93 1.45.997 3.015-4.597 6.532-7.694 7.97-2.775 1.29-7.204 2.106-11.036 2.106zm-4.696-4.021c.35.353 2.101.962 5.727.806 3.224-.138 6.624-.839 8.664-1.786 2.609-1.212 4.351-2.567 5.253-3.492l-.5.092c-7.053 1.456-12.042 1.262-14.828-.577a6.162 6.162 0 01-.54-.401c-.302.119-.581.197-.78.253-1.58.443-3.214.902-2.996 5.105zm-45.562 8.915c-1.752 0-3.596-.239-5.479-.71-1.951-.488-5.24-1.957-5.19-4.37.057-2.707 3.994-3.519 5.476-3.824 5.354-1.103 5.703-1.545 7.376-3.67.488-.619 1.095-1.39 1.923-2.314 1.229-1.376 2.572-2.073 3.992-2.073.989 0 1.8.335 2.336.558 1.708.708 3.133 2.42 3.719 4.467.529 1.847.276 3.625-.71 5.006-3.237 4.533-7.886 6.93-13.443 6.93zm-7.222-4.943c.481.372 1.445.869 2.518 1.137 1.631.408 3.213.615 4.705.615 4.546 0 8.196-1.882 10.847-5.594.553-.774.387-1.757.239-2.274-.31-1.083-1.08-2.068-1.873-2.397-.43-.178-.787-.314-1.115-.314-.176 0-.712 0-1.614 1.009a41.146 41.146 0 00-1.794 2.162c-2.084 2.646-3.039 3.544-9.239 4.821-1.513.31-2.289.626-2.674.835zm12.269-7.36a1.596 1.596 0 01-1.575-1.354 8.218 8.218 0 01-.08-.799c-4.064-.076-7.985-1.82-10.962-4.926-3.764-3.927-5.477-9.368-4.699-14.927.845-6.037.529-11.366.359-14.229-.047-.796-.081-1.371-.079-1.769.003-.505.013-1.844 4.489-4.113 1.592-.807 4.784-2.215 8.271-2.576 5.777-.597 9.585 1.976 10.725 7.246 3.077 14.228.244 20.521-1.825 25.117-.385.856-.749 1.664-1.04 2.447l-.257.69c-1.093 2.931-2.038 5.463-1.748 7.354a1.595 1.595 0 01-1.335 1.819l-.244.02zM42.464 42.26l.062 1.139c.176 2.974.504 8.508-.384 14.86-.641 4.585.759 9.06 3.843 12.276 2.437 2.542 5.644 3.945 8.94 3.945h.068c.369-1.555.982-3.197 1.642-4.966l.255-.686c.329-.884.714-1.74 1.122-2.646 1.991-4.424 4.47-9.931 1.615-23.132-.565-2.615-1.936-4.128-4.189-4.627-4.628-1.022-11.525 2.459-12.974 3.837zm9.63-.677c-.08.564 1.033 2.07 2.485 2.271 1.449.203 2.689-.975 2.768-1.539.079-.564-1.033-1.186-2.485-1.388-1.451-.202-2.691.092-2.768.656zm2.818 2.826l-.407-.028c-.9-.125-1.81-.692-2.433-1.518-.219-.29-.576-.852-.505-1.354.101-.736.999-1.177 2.4-1.177.313 0 .639.023.967.069.766.106 1.477.327 2.002.62.91.508.977 1.075.936 1.368-.112.813-1.405 2.02-2.96 2.02zm-2.289-2.732c.045.348.907 1.496 2.029 1.651l.261.018c1.036 0 1.81-.815 1.901-1.082-.096-.182-.762-.634-2.025-.81a5.823 5.823 0 00-.821-.059c-.812 0-1.243.183-1.345.282zm43.605-1.245c.079.564-1.033 2.07-2.484 2.272-1.45.202-2.691-.975-2.771-1.539-.076-.564 1.036-1.187 2.486-1.388 1.45-.203 2.689.092 2.769.655zm-2.819 2.56c-1.396 0-2.601-1.086-2.7-1.791-.115-.846 1.278-1.489 2.712-1.688.316-.044.629-.066.93-.066 1.238 0 2.058.363 2.14.949.053.379-.238.964-.739 1.492-.331.347-1.026.948-1.973 1.079l-.37.025zm.943-3.013c-.276 0-.564.021-.856.061-1.441.201-2.301.779-2.259 1.089.048.341.968 1.332 2.173 1.332l.297-.021c.787-.109 1.378-.623 1.66-.919.443-.465.619-.903.598-1.052-.028-.198-.56-.49-1.613-.49zm3.965 32.843a1.594 1.594 0 01-1.324-2.483c3.398-5.075 2.776-10.25 2.175-15.255-.257-2.132-.521-4.337-.453-6.453.07-2.177.347-3.973.614-5.71.317-2.058.617-4.002.493-6.31a1.595 1.595 0 113.186-.172c.142 2.638-.197 4.838-.525 6.967-.253 1.643-.515 3.342-.578 5.327-.061 1.874.178 3.864.431 5.97.64 5.322 1.365 11.354-2.691 17.411a1.596 1.596 0 01-1.328.708z"/>
        </svg>
      </g>
      <text x="605.0" y="88" fill="#c9d1d9" font-family="-apple-system, BlinkMacSystemFont, 'Segoe UI', Roboto, sans-serif" font-size="11.5" font-weight="600" text-anchor="middle" letter-spacing="0.2">PostgreSQL</text>
    </g>

    <!-- MySQL Item -->
    <g style="animation: floatUp 5.6s ease-in-out infinite -1.9s;">
      <g filter="url(#dropShadow)">
        <rect x="689.0" y="14" width="52" height="52" rx="14" fill="#0d1117" stroke="#00758f" stroke-width="1.2" stroke-opacity="0.6" />
        <rect x="690.5" y="15.5" width="49" height="49" rx="12.5" fill="none" stroke="#ffffff" stroke-width="0.75" stroke-opacity="0.08" />
        
        <svg x="700.0" y="25.0" width="30" height="30" viewBox="0 0 128 128">
          <path fill="#00618A" d="M117.688 98.242c-6.973-.191-12.297.461-16.852 2.379-1.293.547-3.355.559-3.566 2.18.711.746.82 1.859 1.387 2.777 1.086 1.754 2.922 4.113 4.559 5.352 1.789 1.348 3.633 2.793 5.551 3.961 3.414 2.082 7.223 3.27 10.504 5.352 1.938 1.23 3.859 2.777 5.75 4.164.934.684 1.563 1.75 2.773 2.18v-.195c-.637-.812-.801-1.93-1.387-2.777l-2.578-2.578c-2.52-3.344-5.719-6.281-9.117-8.719-2.711-1.949-8.781-4.578-9.91-7.73l-.199-.199c1.922-.219 4.172-.914 5.949-1.391 2.98-.797 5.645-.59 8.719-1.387l4.164-1.187v-.793c-1.555-1.594-2.664-3.707-4.359-5.152-4.441-3.781-9.285-7.555-14.273-10.703-2.766-1.746-6.184-2.883-9.117-4.363-.988-.496-2.719-.758-3.371-1.586-1.539-1.961-2.379-4.449-3.566-6.738-2.488-4.793-4.93-10.023-7.137-15.066-1.504-3.437-2.484-6.828-4.359-9.91-9-14.797-18.687-23.73-33.695-32.508-3.195-1.867-7.039-2.605-11.102-3.57l-6.543-.395c-1.332-.555-2.715-2.184-3.965-2.977C16.977 3.52 4.223-3.312.539 5.672-1.785 11.34 4.016 16.871 6.09 19.746c1.457 2.012 3.32 4.273 4.359 6.539.688 1.492.805 2.984 1.391 4.559 1.438 3.883 2.695 8.109 4.559 11.695.941 1.816 1.98 3.727 3.172 5.352.727.996 1.98 1.438 2.18 2.973-1.227 1.715-1.297 4.375-1.984 6.543-3.098 9.77-1.926 21.91 2.578 29.137 1.383 2.223 4.641 6.98 9.117 5.156 3.918-1.598 3.043-6.539 4.164-10.902.254-.988.098-1.715.594-2.379v.199l3.57 7.133c2.641 4.254 7.324 8.699 11.297 11.699 2.059 1.555 3.68 4.242 6.344 5.152v-.199h-.199c-.516-.805-1.324-1.137-1.98-1.781-1.551-1.523-3.277-3.414-4.559-5.156-3.613-4.902-6.805-10.27-9.711-15.855-1.391-2.668-2.598-5.609-3.77-8.324-.453-1.047-.445-2.633-1.387-3.172-1.281 1.988-3.172 3.598-4.164 5.945-1.582 3.754-1.789 8.336-2.375 13.082-.348.125-.195.039-.398.199-2.762-.668-3.73-3.508-4.758-5.949-2.594-6.164-3.078-16.09-.793-23.191.59-1.836 3.262-7.617 2.18-9.316-.516-1.691-2.219-2.672-3.172-3.965-1.18-1.598-2.355-3.703-3.172-5.551-2.125-4.805-3.113-10.203-5.352-15.062-1.07-2.324-2.875-4.676-4.359-6.738-1.645-2.289-3.484-3.977-4.758-6.742-.453-.984-1.066-2.559-.398-3.566.215-.684.516-.969 1.191-1.191 1.148-.887 4.352.297 5.547.793 3.18 1.32 5.832 2.578 8.527 4.363 1.289.855 2.598 2.512 4.16 2.973h1.785c2.789.641 5.914.195 8.523.988 4.609 1.402 8.738 3.582 12.488 5.949 11.422 7.215 20.766 17.48 27.156 29.734 1.027 1.973 1.473 3.852 2.379 5.945 1.824 4.219 4.125 8.559 5.941 12.688 1.816 4.113 3.582 8.27 6.148 11.695 1.348 1.801 6.551 2.766 8.918 3.766 1.66.699 4.379 1.43 5.949 2.379 3 1.809 5.906 3.965 8.723 5.945 1.402.992 5.73 3.168 5.945 4.957zm-88.605-75.52c-1.453-.027-2.48.156-3.566.395v.199h.195c.695 1.422 1.918 2.34 2.777 3.566l1.98 4.164.199-.195c1.227-.867 1.789-2.25 1.781-4.363-.492-.52-.562-1.164-.992-1.785-.562-.824-1.66-1.289-2.375-1.98zm0 0"/>
        </svg>
      </g>
      <text x="715.0" y="88" fill="#c9d1d9" font-family="-apple-system, BlinkMacSystemFont, 'Segoe UI', Roboto, sans-serif" font-size="11.5" font-weight="600" text-anchor="middle" letter-spacing="0.2">MySQL</text>
    </g>

    <!-- Redis Item -->
    <g style="animation: floatDown 5.3s ease-in-out infinite -4.2s;">
      <g filter="url(#dropShadow)">
        <rect x="799.0" y="14" width="52" height="52" rx="14" fill="#0d1117" stroke="#ff4438" stroke-width="1.2" stroke-opacity="0.6" />
        <rect x="800.5" y="15.5" width="49" height="49" rx="12.5" fill="none" stroke="#ffffff" stroke-width="0.75" stroke-opacity="0.08" />
        
        <svg x="810.0" y="25.0" width="30" height="30" viewBox="0 0 128 128">
  <path fill="#A41E11" d="M121.8 93.1c-6.7 3.5-41.4 17.7-48.8 21.6-7.4 3.9-11.5 3.8-17.3 1S13 98.1 6.3 94.9c-3.3-1.6-5-2.9-5-4.2V78s48-10.5 55.8-13.2c7.8-2.8 10.4-2.9 17-.5s46.1 9.5 52.6 11.9v12.5c0 1.3-1.5 2.7-4.9 4.4z"/>
  <path fill="#D82C20" d="M121.8 80.5C115.1 84 80.4 98.2 73 102.1c-7.4 3.9-11.5 3.8-17.3 1-5.8-2.8-42.7-17.7-49.4-20.9C-.3 79-.5 76.8 6 74.3c6.5-2.6 43.2-17 51-19.7 7.8-2.8 10.4-2.9 17-.5s41.1 16.1 47.6 18.5c6.7 2.4 6.9 4.4.2 7.9z"/>
  <path fill="#A41E11" d="M121.8 72.5C115.1 76 80.4 90.2 73 94.1c-7.4 3.8-11.5 3.8-17.3 1C49.9 92.3 13 77.4 6.3 74.2c-3.3-1.6-5-2.9-5-4.2V57.3s48-10.5 55.8-13.2c7.8-2.8 10.4-2.9 17-.5s46.1 9.5 52.6 11.9V68c0 1.3-1.5 2.7-4.9 4.5z"/>
  <path fill="#D82C20" d="M121.8 59.8c-6.7 3.5-41.4 17.7-48.8 21.6-7.4 3.8-11.5 3.8-17.3 1C49.9 79.6 13 64.7 6.3 61.5s-6.8-5.4-.3-7.9c6.5-2.6 43.2-17 51-19.7 7.8-2.8 10.4-2.9 17-.5s41.1 16.1 47.6 18.5c6.7 2.4 6.9 4.4.2 7.9z"/>
  <path fill="#A41E11" d="M121.8 51c-6.7 3.5-41.4 17.7-48.8 21.6-7.4 3.8-11.5 3.8-17.3 1C49.9 70.9 13 56 6.3 52.8c-3.3-1.6-5.1-2.9-5.1-4.2V35.9s48-10.5 55.8-13.2c7.8-2.8 10.4-2.9 17-.5s46.1 9.5 52.6 11.9v12.5c.1 1.3-1.4 2.6-4.8 4.4z"/>
  <path fill="#D82C20" d="M121.8 38.3C115.1 41.8 80.4 56 73 59.9c-7.4 3.8-11.5 3.8-17.3 1S13 43.3 6.3 40.1s-6.8-5.4-.3-7.9c6.5-2.6 43.2-17 51-19.7 7.8-2.8 10.4-2.9 17-.5s41.1 16.1 47.6 18.5c6.7 2.4 6.9 4.4.2 7.8z"/>
  <path fill="#fff" d="M80.4 26.1l-10.8 1.2-2.5 5.8-3.9-6.5-12.5-1.1 9.3-3.4-2.8-5.2 8.8 3.4 8.2-2.7L72 23zM66.5 54.5l-20.3-8.4 29.1-4.4z"/>
  <ellipse fill="#fff" cx="38.4" cy="35.4" rx="15.5" ry="6"/>
  <path fill="#7A0C00" d="M93.3 27.7l17.2 6.8-17.2 6.8z"/>
  <path fill="#AD2115" d="M74.3 35.3l19-7.6v13.6l-1.9.8z"/>
</svg>
      </g>
      <text x="825.0" y="88" fill="#c9d1d9" font-family="-apple-system, BlinkMacSystemFont, 'Segoe UI', Roboto, sans-serif" font-size="11.5" font-weight="600" text-anchor="middle" letter-spacing="0.2">Redis</text>
    </g>


    <!-- TypeScript Item -->
    <g style="animation: floatDown 5.1s ease-in-out infinite -0.5s;">
      <g filter="url(#dropShadow)">
        <rect x="84.0" y="112" width="52" height="52" rx="14" fill="#0d1117" stroke="#3178c6" stroke-width="1.2" stroke-opacity="0.6" />
        <rect x="85.5" y="113.5" width="49" height="49" rx="12.5" fill="none" stroke="#ffffff" stroke-width="0.75" stroke-opacity="0.08" />
        
        <svg x="95.0" y="123.0" width="30" height="30" viewBox="0 0 128 128">
          <path fill="#fff" d="M22.67 47h99.67v73.67H22.67z"/><path data-name="original" fill="#007acc" d="M1.5 63.91v62.5h125v-125H1.5zm100.73-5a15.56 15.56 0 017.82 4.5 20.58 20.58 0 013 4c0 .16-5.4 3.81-8.69 5.85-.12.08-.6-.44-1.13-1.23a7.09 7.09 0 00-5.87-3.53c-3.79-.26-6.23 1.73-6.21 5a4.58 4.58 0 00.54 2.34c.83 1.73 2.38 2.76 7.24 4.86 8.95 3.85 12.78 6.39 15.16 10 2.66 4 3.25 10.46 1.45 15.24-2 5.2-6.9 8.73-13.83 9.9a38.32 38.32 0 01-9.52-.1 23 23 0 01-12.72-6.63c-1.15-1.27-3.39-4.58-3.25-4.82a9.34 9.34 0 011.15-.73L82 101l3.59-2.08.75 1.11a16.78 16.78 0 004.74 4.54c4 2.1 9.46 1.81 12.16-.62a5.43 5.43 0 00.69-6.92c-1-1.39-3-2.56-8.59-5-6.45-2.78-9.23-4.5-11.77-7.24a16.48 16.48 0 01-3.43-6.25 25 25 0 01-.22-8c1.33-6.23 6-10.58 12.82-11.87a31.66 31.66 0 019.49.26zm-29.34 5.24v5.12H56.66v46.23H45.15V69.26H28.88v-5a49.19 49.19 0 01.12-5.17C29.08 59 39 59 51 59h21.83z"/>
        </svg>
      </g>
      <text x="110.0" y="186" fill="#c9d1d9" font-family="-apple-system, BlinkMacSystemFont, 'Segoe UI', Roboto, sans-serif" font-size="11.5" font-weight="600" text-anchor="middle" letter-spacing="0.2">TypeScript</text>
    </g>

    <!-- JSX Item -->
    <g style="animation: floatUp 5.5s ease-in-out infinite -2.1s;">
      <g filter="url(#dropShadow)">
        <rect x="194.0" y="112" width="52" height="52" rx="14" fill="#0d1117" stroke="#f7df1e" stroke-width="1.2" stroke-opacity="0.6" />
        <rect x="195.5" y="113.5" width="49" height="49" rx="12.5" fill="none" stroke="#ffffff" stroke-width="0.75" stroke-opacity="0.08" />
        
        <svg x="205.0" y="123.0" width="30" height="30" viewBox="0 0 128 128">
  <path fill="#F0DB4F" d="M1.408 1.408h125.184v125.185H1.408z"/>
  <path fill="#323330" d="M116.347 96.736c-.917-5.711-4.641-10.508-15.672-14.981-3.832-1.761-8.104-3.022-9.377-5.926-.452-1.69-.512-2.642-.226-3.665.821-3.32 4.784-4.355 7.925-3.403 2.023.678 3.938 2.237 5.093 4.724 5.402-3.498 5.391-3.475 9.163-5.879-1.381-2.141-2.118-3.129-3.022-4.045-3.249-3.629-7.676-5.498-14.756-5.355l-3.688.477c-3.534.893-6.902 2.748-8.877 5.235-5.926 6.724-4.236 18.492 2.975 23.335 7.104 5.332 17.54 6.545 18.873 11.531 1.297 6.104-4.486 8.08-10.234 7.378-4.236-.881-6.592-3.034-9.139-6.949-4.688 2.713-4.688 2.713-9.508 5.485 1.143 2.499 2.344 3.63 4.26 5.795 9.068 9.198 31.76 8.746 35.83-5.176.165-.478 1.261-3.666.38-8.581zM69.462 58.943H57.753l-.048 30.272c0 6.438.333 12.34-.714 14.149-1.713 3.558-6.152 3.117-8.175 2.427-2.059-1.012-3.106-2.451-4.319-4.485-.333-.584-.583-1.036-.667-1.071l-9.52 5.83c1.583 3.249 3.915 6.069 6.902 7.901 4.462 2.678 10.459 3.499 16.731 2.059 4.082-1.189 7.604-3.652 9.448-7.401 2.666-4.915 2.094-10.864 2.07-17.444.06-10.735.001-21.468.001-32.237z"/>
</svg>
      </g>
      <text x="220.0" y="186" fill="#c9d1d9" font-family="-apple-system, BlinkMacSystemFont, 'Segoe UI', Roboto, sans-serif" font-size="11.5" font-weight="600" text-anchor="middle" letter-spacing="0.2">JSX</text>
    </g>

    <!-- React Item -->
    <g style="animation: floatDown 4.8s ease-in-out infinite -1.0s;">
      <g filter="url(#dropShadow)">
        <rect x="304.0" y="112" width="52" height="52" rx="14" fill="#0d1117" stroke="#61dafb" stroke-width="1.2" stroke-opacity="0.6" />
        <rect x="305.5" y="113.5" width="49" height="49" rx="12.5" fill="none" stroke="#ffffff" stroke-width="0.75" stroke-opacity="0.08" />
        
        <svg x="315.0" y="123.0" width="30" height="30" viewBox="0 0 128 128">
          <g fill="#61DAFB"><circle cx="64" cy="64" r="11.4"/><path d="M107.3 45.2c-2.2-.8-4.5-1.6-6.9-2.3.6-2.4 1.1-4.8 1.5-7.1 2.1-13.2-.2-22.5-6.6-26.1-1.9-1.1-4-1.6-6.4-1.6-7 0-15.9 5.2-24.9 13.9-9-8.7-17.9-13.9-24.9-13.9-2.4 0-4.5.5-6.4 1.6-6.4 3.7-8.7 13-6.6 26.1.4 2.3.9 4.7 1.5 7.1-2.4.7-4.7 1.4-6.9 2.3C8.2 50 1.4 56.6 1.4 64s6.9 14 19.3 18.8c2.2.8 4.5 1.6 6.9 2.3-.6 2.4-1.1 4.8-1.5 7.1-2.1 13.2.2 22.5 6.6 26.1 1.9 1.1 4 1.6 6.4 1.6 7.1 0 16-5.2 24.9-13.9 9 8.7 17.9 13.9 24.9 13.9 2.4 0 4.5-.5 6.4-1.6 6.4-3.7 8.7-13 6.6-26.1-.4-2.3-.9-4.7-1.5-7.1 2.4-.7 4.7-1.4 6.9-2.3 12.5-4.8 19.3-11.4 19.3-18.8s-6.8-14-19.3-18.8zM92.5 14.7c4.1 2.4 5.5 9.8 3.8 20.3-.3 2.1-.8 4.3-1.4 6.6-5.2-1.2-10.7-2-16.5-2.5-3.4-4.8-6.9-9.1-10.4-13 7.4-7.3 14.9-12.3 21-12.3 1.3 0 2.5.3 3.5.9zM81.3 74c-1.8 3.2-3.9 6.4-6.1 9.6-3.7.3-7.4.4-11.2.4-3.9 0-7.6-.1-11.2-.4-2.2-3.2-4.2-6.4-6-9.6-1.9-3.3-3.7-6.7-5.3-10 1.6-3.3 3.4-6.7 5.3-10 1.8-3.2 3.9-6.4 6.1-9.6 3.7-.3 7.4-.4 11.2-.4 3.9 0 7.6.1 11.2.4 2.2 3.2 4.2 6.4 6 9.6 1.9 3.3 3.7 6.7 5.3 10-1.7 3.3-3.4 6.6-5.3 10zm8.3-3.3c1.5 3.5 2.7 6.9 3.8 10.3-3.4.8-7 1.4-10.8 1.9 1.2-1.9 2.5-3.9 3.6-6 1.2-2.1 2.3-4.2 3.4-6.2zM64 97.8c-2.4-2.6-4.7-5.4-6.9-8.3 2.3.1 4.6.2 6.9.2 2.3 0 4.6-.1 6.9-.2-2.2 2.9-4.5 5.7-6.9 8.3zm-18.6-15c-3.8-.5-7.4-1.1-10.8-1.9 1.1-3.3 2.3-6.8 3.8-10.3 1.1 2 2.2 4.1 3.4 6.1 1.2 2.2 2.4 4.1 3.6 6.1zm-7-25.5c-1.5-3.5-2.7-6.9-3.8-10.3 3.4-.8 7-1.4 10.8-1.9-1.2 1.9-2.5 3.9-3.6 6-1.2 2.1-2.3 4.2-3.4 6.2zM64 30.2c2.4 2.6 4.7 5.4 6.9 8.3-2.3-.1-4.6-.2-6.9-.2-2.3 0-4.6.1-6.9.2 2.2-2.9 4.5-5.7 6.9-8.3zm22.2 21l-3.6-6c3.8.5 7.4 1.1 10.8 1.9-1.1 3.3-2.3 6.8-3.8 10.3-1.1-2.1-2.2-4.2-3.4-6.2zM31.7 35c-1.7-10.5-.3-17.9 3.8-20.3 1-.6 2.2-.9 3.5-.9 6 0 13.5 4.9 21 12.3-3.5 3.8-7 8.2-10.4 13-5.8.5-11.3 1.4-16.5 2.5-.6-2.3-1-4.5-1.4-6.6zM7 64c0-4.7 5.7-9.7 15.7-13.4 2-.8 4.2-1.5 6.4-2.1 1.6 5 3.6 10.3 6 15.6-2.4 5.3-4.5 10.5-6 15.5C15.3 75.6 7 69.6 7 64zm28.5 49.3c-4.1-2.4-5.5-9.8-3.8-20.3.3-2.1.8-4.3 1.4-6.6 5.2 1.2 10.7 2 16.5 2.5 3.4 4.8 6.9 9.1 10.4 13-7.4 7.3-14.9 12.3-21 12.3-1.3 0-2.5-.3-3.5-.9zM96.3 93c1.7 10.5.3 17.9-3.8 20.3-1 .6-2.2.9-3.5.9-6 0-13.5-4.9-21-12.3 3.5-3.8 7-8.2 10.4-13 5.8-.5 11.3-1.4 16.5-2.5.6 2.3 1 4.5 1.4 6.6zm9-15.6c-2 .8-4.2 1.5-6.4 2.1-1.6-5-3.6-10.3-6-15.6 2.4-5.3 4.5-10.5 6-15.5 13.8 4 22.1 10 22.1 15.6 0 4.7-5.8 9.7-15.7 13.4z"/></g>
        </svg>
      </g>
      <text x="330.0" y="186" fill="#c9d1d9" font-family="-apple-system, BlinkMacSystemFont, 'Segoe UI', Roboto, sans-serif" font-size="11.5" font-weight="600" text-anchor="middle" letter-spacing="0.2">React</text>
    </g>

    <!-- Next.js Item -->
    <g style="animation: floatUp 5.3s ease-in-out infinite -3.1s;">
      <g filter="url(#dropShadow)">
        <rect x="414.0" y="112" width="52" height="52" rx="14" fill="#0d1117" stroke="#94a3b8" stroke-width="1.2" stroke-opacity="0.6" />
        <rect x="415.5" y="113.5" width="49" height="49" rx="12.5" fill="none" stroke="#ffffff" stroke-width="0.75" stroke-opacity="0.08" />
        
        <svg x="425.0" y="123.0" width="30" height="30" viewBox="0 0 128 128">
          <circle cx="64" cy="64" r="64"/><path fill="url(#a)" d="M106.317 112.014 49.167 38.4H38.4v51.179h8.614v-40.24l52.54 67.884a64.216 64.216 0 0 0 6.763-5.209z"/><path fill="url(#b)" d="M81.778 38.4h8.533v51.2h-8.533z"/><defs><linearGradient id="a" x1="109" x2="144.5" y1="116.5" y2="160.5" gradientTransform="scale(.71111)" gradientUnits="userSpaceOnUse"><stop stop-color="#fff"/><stop offset="1" stop-color="#fff" stop-opacity="0"/></linearGradient><linearGradient id="b" x1="121" x2="120.799" y1="54" y2="106.875" gradientTransform="scale(.71111)" gradientUnits="userSpaceOnUse"><stop stop-color="#fff"/><stop offset="1" stop-color="#fff" stop-opacity="0"/></linearGradient></defs>
        </svg>
      </g>
      <text x="440.0" y="186" fill="#c9d1d9" font-family="-apple-system, BlinkMacSystemFont, 'Segoe UI', Roboto, sans-serif" font-size="11.5" font-weight="600" text-anchor="middle" letter-spacing="0.2">Next.js</text>
    </g>

    <!-- Vite Item -->
    <g style="animation: floatDown 5.6s ease-in-out infinite -1.8s;">
      <g filter="url(#dropShadow)">
        <rect x="524.0" y="112" width="52" height="52" rx="14" fill="#0d1117" stroke="#bd34fe" stroke-width="1.2" stroke-opacity="0.6" />
        <rect x="525.5" y="113.5" width="49" height="49" rx="12.5" fill="none" stroke="#ffffff" stroke-width="0.75" stroke-opacity="0.08" />
        
        <svg x="535.0" y="123.0" width="30" height="30" viewBox="0 0 128 128">
  <defs>
    <linearGradient id="viteGradA" x1="6" x2="235" y1="33" y2="344" gradientTransform="translate(0 .937) scale(.3122)" gradientUnits="userSpaceOnUse">
      <stop offset="0" stop-color="#41d1ff"/>
      <stop offset="1" stop-color="#bd34fe"/>
    </linearGradient>
    <linearGradient id="viteGradB" x1="194.651" x2="236.076" y1="8.818" y2="292.989" gradientTransform="translate(0 .937) scale(.3122)" gradientUnits="userSpaceOnUse">
      <stop offset="0" stop-color="#ffea83"/>
      <stop offset=".083" stop-color="#ffdd35"/>
      <stop offset="1" stop-color="#ffa800"/>
    </linearGradient>
  </defs>
  <path fill="url(#viteGradA)" d="M124.766 19.52 67.324 122.238c-1.187 2.121-4.234 2.133-5.437.024L3.305 19.532c-1.313-2.302.652-5.087 3.261-4.622L64.07 25.187a3.09 3.09 0 0 0 1.11 0l56.3-10.261c2.598-.473 4.575 2.289 3.286 4.594Zm0 0"/>
  <path fill="url(#viteGradB)" d="M91.46 1.43 48.954 9.758a1.56 1.56 0 0 0-1.258 1.437l-2.617 44.168a1.563 1.563 0 0 0 1.91 1.614l11.836-2.735a1.562 1.562 0 0 1 1.88 1.836l-3.517 17.219a1.562 1.562 0 0 0 1.985 1.805l7.308-2.223c1.133-.344 2.223.652 1.985 1.812l-5.59 27.047c-.348 1.692 1.902 2.614 2.84 1.164l.625-.968 34.64-69.13c.582-1.16-.421-2.48-1.69-2.234l-12.185 2.352a1.558 1.558 0 0 1-1.793-1.965l7.95-27.562A1.56 1.56 0 0 0 91.46 1.43Zm0 0"/>
</svg>
      </g>
      <text x="550.0" y="186" fill="#c9d1d9" font-family="-apple-system, BlinkMacSystemFont, 'Segoe UI', Roboto, sans-serif" font-size="11.5" font-weight="600" text-anchor="middle" letter-spacing="0.2">Vite</text>
    </g>

    <!-- Tailwind Item -->
    <g style="animation: floatUp 5.2s ease-in-out infinite -3.9s;">
      <g filter="url(#dropShadow)">
        <rect x="634.0" y="112" width="52" height="52" rx="14" fill="#0d1117" stroke="#38bdf8" stroke-width="1.2" stroke-opacity="0.6" />
        <rect x="635.5" y="113.5" width="49" height="49" rx="12.5" fill="none" stroke="#ffffff" stroke-width="0.75" stroke-opacity="0.08" />
        
        <svg x="645.0" y="123.0" width="30" height="30" viewBox="0 0 128 128">
  <path d="M64.004 25.602c-17.067 0-27.73 8.53-32 25.597 6.398-8.531 13.867-11.73 22.398-9.597 4.871 1.214 8.352 4.746 12.207 8.66C72.883 56.629 80.145 64 96.004 64c17.066 0 27.73-8.531 32-25.602-6.399 8.536-13.867 11.735-22.399 9.602-4.87-1.215-8.347-4.746-12.207-8.66-6.27-6.367-13.53-13.738-29.394-13.738zM32.004 64c-17.066 0-27.73 8.531-32 25.602C6.402 81.066 13.87 77.867 22.402 80c4.871 1.215 8.352 4.746 12.207 8.66 6.274 6.367 13.536 13.738 29.395 13.738 17.066 0 27.73-8.53 32-25.597-6.399 8.531-13.867 11.73-22.399 9.597-4.87-1.214-8.347-4.746-12.207-8.66C55.128 71.371 47.868 64 32.004 64zm0 0" fill="#38bdf8"/>
</svg>
      </g>
      <text x="660.0" y="186" fill="#c9d1d9" font-family="-apple-system, BlinkMacSystemFont, 'Segoe UI', Roboto, sans-serif" font-size="11.5" font-weight="600" text-anchor="middle" letter-spacing="0.2">Tailwind</text>
    </g>

    <!-- shadcn/ui Item -->
    <g style="animation: floatDown 4.9s ease-in-out infinite -0.8s;">
      <g filter="url(#dropShadow)">
        <rect x="744.0" y="112" width="52" height="52" rx="14" fill="#0d1117" stroke="#e2e8f0" stroke-width="1.2" stroke-opacity="0.6" />
        <rect x="745.5" y="113.5" width="49" height="49" rx="12.5" fill="none" stroke="#ffffff" stroke-width="0.75" stroke-opacity="0.08" />
        
        <svg x="755.0" y="123.0" width="30" height="30" viewBox="0 0 256 256">
  <path d="M208 128l-80 80M192 40L40 192" fill="none" stroke="#f8fafc" stroke-width="26" stroke-linecap="round" stroke-linejoin="round"/>
</svg>
      </g>
      <text x="770.0" y="186" fill="#c9d1d9" font-family="-apple-system, BlinkMacSystemFont, 'Segoe UI', Roboto, sans-serif" font-size="11.5" font-weight="600" text-anchor="middle" letter-spacing="0.2">shadcn/ui</text>
    </g>


    <!-- Prisma Item -->
    <g style="animation: floatUp 5.0s ease-in-out infinite -4.1s;">
      <g filter="url(#dropShadow)">
        <rect x="29.0" y="210" width="52" height="52" rx="14" fill="#0d1117" stroke="#2dd4bf" stroke-width="1.2" stroke-opacity="0.6" />
        <rect x="30.5" y="211.5" width="49" height="49" rx="12.5" fill="none" stroke="#ffffff" stroke-width="0.75" stroke-opacity="0.08" />
        
        <svg x="40.0" y="221.0" width="30" height="30" viewBox="0 0 128 128">
          <path fill="#f8fafc" d="M66.457.014a6.308 6.308 0 0 0-5.812 3.028l-47.87 78.072a6.379 6.379 0 0 0 .048 6.748l23.568 37.186a6.387 6.387 0 0 0 7.22 2.683l68.012-20.407a6.37 6.37 0 0 0 3.96-8.765l-43.72-94.85A6.298 6.298 0 0 0 66.46.014Zm1.795 23.95a2.348 2.348 0 0 1 2.448 1.433l30.16 69.784a2.39 2.39 0 0 1-1.512 3.241l-46.996 14.024a2.39 2.39 0 0 1-3.024-2.76l16.83-83.812a2.353 2.353 0 0 1 2.099-1.91z"/>
        </svg>
      </g>
      <text x="55.0" y="284" fill="#c9d1d9" font-family="-apple-system, BlinkMacSystemFont, 'Segoe UI', Roboto, sans-serif" font-size="11.5" font-weight="600" text-anchor="middle" letter-spacing="0.2">Prisma</text>
    </g>

    <!-- Drizzle Item -->
    <g style="animation: floatDown 5.5s ease-in-out infinite -2.2s;">
      <g filter="url(#dropShadow)">
        <rect x="139.0" y="210" width="52" height="52" rx="14" fill="#0d1117" stroke="#c5f74f" stroke-width="1.2" stroke-opacity="0.6" />
        <rect x="140.5" y="211.5" width="49" height="49" rx="12.5" fill="none" stroke="#ffffff" stroke-width="0.75" stroke-opacity="0.08" />
        
        <svg x="150.0" y="221.0" width="30" height="30" viewBox="0 0 24 24">
          <title>Drizzle</title><path fill="#c5f74f" d="M5.353 11.823a1.036 1.036 0 0 0-.395-1.422 1.063 1.063 0 0 0-1.437.399L.138 16.702a1.035 1.035 0 0 0 .395 1.422 1.063 1.063 0 0 0 1.437-.398l3.383-5.903Zm11.216 0a1.036 1.036 0 0 0-.394-1.422 1.064 1.064 0 0 0-1.438.399l-3.382 5.902a1.036 1.036 0 0 0 .394 1.422c.506.283 1.15.104 1.438-.398l3.382-5.903Zm7.293-4.525a1.036 1.036 0 0 0-.395-1.422 1.062 1.062 0 0 0-1.437.399l-3.383 5.902a1.036 1.036 0 0 0 .395 1.422 1.063 1.063 0 0 0 1.437-.399l3.383-5.902Zm-11.219 0a1.035 1.035 0 0 0-.394-1.422 1.064 1.064 0 0 0-1.438.398l-3.382 5.903a1.036 1.036 0 0 0 .394 1.422c.506.282 1.15.104 1.438-.399l3.382-5.902Z"/>
        </svg>
      </g>
      <text x="165.0" y="284" fill="#c9d1d9" font-family="-apple-system, BlinkMacSystemFont, 'Segoe UI', Roboto, sans-serif" font-size="11.5" font-weight="600" text-anchor="middle" letter-spacing="0.2">Drizzle</text>
    </g>

    <!-- Alembic Item -->
    <g style="animation: floatUp 4.9s ease-in-out infinite -4.0s;">
      <g filter="url(#dropShadow)">
        <rect x="249.0" y="210" width="52" height="52" rx="14" fill="#0d1117" stroke="#e11d48" stroke-width="1.2" stroke-opacity="0.6" />
        <rect x="250.5" y="211.5" width="49" height="49" rx="12.5" fill="none" stroke="#ffffff" stroke-width="0.75" stroke-opacity="0.08" />
        
        <svg x="260.0" y="221.0" width="30" height="30" viewBox="0 0 128 128">
          <path fill="#e2e8f0" d="M9.394 72.999c-.759-.121-2.701-.607-4.31-1.047l-2.93-.82 1.503-2.762 1.502-2.762-1.214-1.503C2.23 61.98.015 57.322 0 55.82c-.016-3.507 4.536-8.59 10.121-11.321 3.84-1.882 6.89-1.927 10.714-.136l2.883 1.35.835-1.199c.454-.653.834-1.517.834-1.897 0-.38.38-.713.835-.713.455 0 .834.12.834.257 0 .335-3.353 8.802-3.565 9.014-.092.09-1.003-.333-2.035-.94-2.913-1.716-6.57-2.854-9.408-2.93-6.6-.167-8.893 6.284-4.233 11.928l1.638 1.989 4.477-3.628c5.023-4.051 5.6-4.143 9.515-1.44 4.4 3.034 4.476 7.647.226 12.472-3.763 4.295-7.631 5.48-14.279 4.37zm11.26-4.628c2.184-1.714 2.033-4.887-.335-7.406-2.974-3.156-3.898-3.02-9.134 1.35-5.206 4.34-5.236 4.174.986 6.162 4.112 1.335 6.692 1.29 8.483-.106zm42.277 16.722c-1.488-.546-5.494-2.2-8.923-3.687-9.257-4.037-10.562-4.113-13.324-.759-.637.774-1.335 1.26-1.532 1.063-.593-.593 1.168-3.43 3.293-5.296 1.729-1.518 2.305-1.73 4.219-1.518 1.213.136 5.25 1.548 8.967 3.126 8.392 3.566 10.85 4.325 14.053 4.325 3.899 0 5.903-2.731 4.673-6.358-.303-.91-.213-1.215.395-1.215 1.137 0 1.715 4.25.896 6.693-.35 1.046-1.367 2.533-2.262 3.277-1.336 1.123-2.185 1.366-4.69 1.35-1.684-.014-4.278-.454-5.766-1zM41.307 72.12c-3.445-1.61-6.556-4.675-8.347-8.256-2.867-5.736-1.988-9.408 3.445-14.37 4.567-4.174 8.301-5.798 13.325-5.798 3.625 0 4.4.198 6.75 1.639 5.57 3.445 6.951 10.016 3.598 17.177-3.93 8.408-12.231 12.642-18.771 9.606zm11.533-3.992c2.579-1.275 4.355-7.163 3.626-12.05-.91-6.023-9.059-10.136-15.038-7.586-6.146 2.625-6.237 9.62-.197 15.918 4.218 4.416 7.845 5.57 11.609 3.718zm11.7 5.099c0-.259.955-.713 2.139-1.002l2.14-.532.455-7.707c.5-8.529.135-16.921-.79-18.043-.334-.396-1.35-.882-2.275-1.093-3.763-.835-1.26-1.412 6.04-1.412 7.299 0 9.62.532 6.145 1.412-2.99.744-3.005.789-3.005 12.959 0 6.752.243 11.837.592 12.489.486.91 1.214 1.107 4.006 1.107 5.766 0 7.754-1.365 9.318-6.419.47-1.516 1.684-1.243 1.259.29-.198.712-.515 2.881-.713 4.855l-.364 3.566H77.013c-6.86 0-12.473-.212-12.473-.47z"/><path fill="#ca2727" d="M92.87 72.862c0-.454.441-.91 1.169-1.259.972-.455 1.608-1.411 3.915-5.918 3.657-7.131 9.424-19.378 9.97-21.215.424-1.396.516-1.471 2.094-1.653.91-.106 1.669-.167 1.684-.137.015.03 1.275 2.791 2.808 6.146 1.518 3.353 4.568 9.727 6.783 14.158 3.703 7.45 4.113 8.118 5.357 8.724.759.365 1.35.927 1.35 1.26 0 .531-.652.592-6.266.592-5.63 0-6.268-.06-6.268-.606 0-.364.486-.759 1.259-1.018.714-.227 1.26-.652 1.26-.97 0-.304-.744-2.307-1.655-4.446l-1.653-3.9h-12.535l-1.198 2.64c-2.247 4.947-2.292 6.116-.198 6.676 1.048.289 1.336.517 1.214.987-.136.547-.683.622-4.628.622-4.234.031-4.462 0-4.462-.683zm20.547-12.276c.212-.379-4.507-10.683-4.946-10.79-.32-.09-5.206 9.986-5.206 10.744 0 .38 9.925.425 10.152.046z"/>
        </svg>
      </g>
      <text x="275.0" y="284" fill="#c9d1d9" font-family="-apple-system, BlinkMacSystemFont, 'Segoe UI', Roboto, sans-serif" font-size="11.5" font-weight="600" text-anchor="middle" letter-spacing="0.2">Alembic</text>
    </g>

    <!-- Docker Item -->
    <g style="animation: floatDown 5.7s ease-in-out infinite -2.7s;">
      <g filter="url(#dropShadow)">
        <rect x="359.0" y="210" width="52" height="52" rx="14" fill="#0d1117" stroke="#2496ed" stroke-width="1.2" stroke-opacity="0.6" />
        <rect x="360.5" y="211.5" width="49" height="49" rx="12.5" fill="none" stroke="#ffffff" stroke-width="0.75" stroke-opacity="0.08" />
        
        <svg x="370.0" y="221.0" width="30" height="30" viewBox="0 0 128 128">
          <path fill-rule="evenodd" clip-rule="evenodd" fill="#3A4D54" d="M73.8 50.8h11.3v11.5h5.7c2.6 0 5.3-.5 7.8-1.3 1.2-.4 2.6-1 3.8-1.7-1.6-2.1-2.4-4.7-2.6-7.3-.3-3.5.4-8.1 2.8-10.8l1.2-1.4 1.4 1.1c3.6 2.9 6.5 6.8 7.1 11.4 4.3-1.3 9.3-1 13.1 1.2l1.5.9-.8 1.6c-3.2 6.2-9.9 8.2-16.4 7.8-9.8 24.3-31 35.8-56.8 35.8-13.3 0-25.5-5-32.5-16.8l-.1-.2-1-2.1c-2.4-5.2-3.1-10.9-2.6-16.6l.2-1.7h9.6V50.8h11.3V39.6h22.5V28.3h13.5v22.5z"/><path fill="#00AADA" d="M110.4 55.1c.8-5.9-3.6-10.5-6.4-12.7-3.1 3.6-3.6 13.2 1.3 17.2-2.8 2.4-8.5 4.7-14.5 4.7H18.6c-.6 6.2.5 11.9 3 16.8l.8 1.5c.5.9 1.1 1.7 1.7 2.6 3 .2 5.7.3 8.2.2 4.9-.1 8.9-.7 12-1.7.5-.2.9.1 1.1.5.2.5-.1.9-.5 1.1-.4.1-.8.3-1.3.4-2.4.7-5 1.1-8.3 1.3h-.6c-1.3.1-2.7.1-4.2.1-1.6 0-3.1 0-4.9-.1 6 6.8 15.4 10.8 27.2 10.8 25 0 46.2-11.1 55.5-35.9 6.7.7 13.1-1 16-6.7-4.5-2.7-10.5-1.8-13.9-.1z"/><path fill="#28B8EB" d="M110.4 55.1c.8-5.9-3.6-10.5-6.4-12.7-3.1 3.6-3.6 13.2 1.3 17.2-2.8 2.4-8.5 4.7-14.5 4.7h-68c-.3 9.5 3.2 16.7 9.5 21 4.9-.1 8.9-.7 12-1.7.5-.2.9.1 1.1.5.2.5-.1.9-.5 1.1-.4.1-.8.3-1.3.4-2.4.7-5.2 1.2-8.5 1.4l-.1-.1c8.5 4.4 20.8 4.3 35-1.1 15.8-6.1 30.6-17.7 40.9-30.9-.2.1-.4.1-.5.2z"/><path fill="#028BB8" d="M18.7 71.8c.4 3.3 1.4 6.4 2.9 9.3l.8 1.5c.5.9 1.1 1.7 1.7 2.6 3 .2 5.7.3 8.2.2 4.9-.1 8.9-.7 12-1.7.5-.2.9.1 1.1.5.2.5-.1.9-.5 1.1-.4.1-.8.3-1.3.4-2.4.7-5.2 1.2-8.5 1.4h-.4c-1.3.1-2.7.1-4.1.1-1.6 0-3.2 0-4.9-.1 6 6.8 15.5 10.8 27.3 10.8 21.4 0 40-8.1 50.8-26H18.7v-.1z"/><path fill="#019BC6" d="M23.5 71.8c1.3 5.8 4.3 10.4 8.8 13.5 4.9-.1 8.9-.7 12-1.7.5-.2.9.1 1.1.5.2.5-.1.9-.5 1.1-.4.1-.8.3-1.3.4-2.4.7-5.2 1.2-8.6 1.4 8.5 4.4 20.8 4.3 34.9-1.1 8.5-3.3 16.8-8.2 24.2-14.1H23.5z"/><path fill-rule="evenodd" clip-rule="evenodd" fill="#00ACD3" d="M28.4 52.7h9.8v9.8h-9.8v-9.8zm.8.8h.8v8.1h-.8v-8.1zm1.4 0h.8v8.1h-.8v-8.1zm1.5 0h.8v8.1h-.8v-8.1zm1.5 0h.8v8.1h-.8v-8.1zm1.5 0h.8v8.1h-.8v-8.1zm1.5 0h.8v8.1h-.8v-8.1zm3-12h9.8v9.8h-9.8v-9.8zm.9.8h.8v8.1h-.8v-8.1zm1.4 0h.8v8.1h-.8v-8.1zm1.5 0h.8v8.1h-.8v-8.1zm1.5 0h.8v8.1h-.8v-8.1zm1.4 0h.8v8.1h-.8v-8.1zm1.5 0h.8v8.1h-.8v-8.1z"/><path fill-rule="evenodd" clip-rule="evenodd" fill="#23C2EE" d="M39.6 52.7h9.8v9.8h-9.8v-9.8zm.9.8h.8v8.1h-.8v-8.1zm1.4 0h.8v8.1h-.8v-8.1zm1.5 0h.8v8.1h-.8v-8.1zm1.5 0h.8v8.1h-.8v-8.1zm1.4 0h.8v8.1h-.8v-8.1zm1.5 0h.8v8.1h-.8v-8.1z"/><path fill-rule="evenodd" clip-rule="evenodd" fill="#00ACD3" d="M50.9 52.7h9.8v9.8h-9.8v-9.8zm.8.8h.8v8.1h-.8v-8.1zm1.5 0h.8v8.1h-.8v-8.1zm1.5 0h.8v8.1h-.8v-8.1zm1.4 0h.8v8.1h-.8v-8.1zm1.5 0h.8v8.1h-.8v-8.1zm1.5 0h.8v8.1h-.8v-8.1z"/><path fill-rule="evenodd" clip-rule="evenodd" fill="#23C2EE" d="M50.9 41.5h9.8v9.8h-9.8v-9.8zm.8.8h.8v8.1h-.8v-8.1zm1.5 0h.8v8.1h-.8v-8.1zm1.5 0h.8v8.1h-.8v-8.1zm1.4 0h.8v8.1h-.8v-8.1zm1.5 0h.8v8.1h-.8v-8.1zm1.5 0h.8v8.1h-.8v-8.1zm3.1 10.4H72v9.8h-9.8v-9.8zm.8.8h.8v8.1H63v-8.1zm1.5 0h.8v8.1h-.8v-8.1zm1.4 0h.8v8.1h-.8v-8.1zm1.5 0h.8v8.1h-.8v-8.1zm1.5 0h.8v8.1h-.8v-8.1zm1.5 0h.8v8.1h-.8v-8.1z"/><path fill-rule="evenodd" clip-rule="evenodd" fill="#00ACD3" d="M62.2 41.5H72v9.8h-9.8v-9.8zm.8.8h.8v8.1H63v-8.1zm1.5 0h.8v8.1h-.8v-8.1zm1.4 0h.8v8.1h-.8v-8.1zm1.5 0h.8v8.1h-.8v-8.1zm1.5 0h.8v8.1h-.8v-8.1zm1.5 0h.8v8.1h-.8v-8.1z"/><path fill-rule="evenodd" clip-rule="evenodd" fill="#23C2EE" d="M62.2 30.2H72V40h-9.8v-9.8zm.8.8h.8v8.1H63V31zm1.5 0h.8v8.1h-.8V31zm1.4 0h.8v8.1h-.8V31zm1.5 0h.8v8.1h-.8V31zm1.5 0h.8v8.1h-.8V31zm1.5 0h.8v8.1h-.8V31z"/><path fill-rule="evenodd" clip-rule="evenodd" fill="#00ACD3" d="M73.5 52.7h9.8v9.8h-9.8v-9.8zm.8.8h.8v8.1h-.8v-8.1zm1.4 0h.8v8.1h-.8v-8.1zm1.5 0h.8v8.1h-.8v-8.1zm1.5 0h.8v8.1h-.8v-8.1zm1.5 0h.8v8.1h-.8v-8.1zm1.5 0h.8v8.1h-.8v-8.1z"/><path fill-rule="evenodd" clip-rule="evenodd" fill="#D4EEF1" d="M48.8 78.3c1.5 0 2.7 1.2 2.7 2.7 0 1.5-1.2 2.7-2.7 2.7-1.5 0-2.7-1.2-2.7-2.7 0-1.5 1.2-2.7 2.7-2.7"/><path fill-rule="evenodd" clip-rule="evenodd" fill="#3A4D54" d="M48.8 79.1c.2 0 .5 0 .7.1-.2.1-.4.4-.4.7 0 .4.4.8.8.8.3 0 .6-.2.7-.4.1.2.1.5.1.7 0 1.1-.9 1.9-1.9 1.9-1.1 0-1.9-.9-1.9-1.9 0-1 .8-1.9 1.9-1.9M1.1 72.8h125.4c-2.7-.7-8.6-1.6-7.7-5.2-5 5.7-16.9 4-20 1.2-3.4 4.9-23 3-24.3-.8-4.2 5-17.3 5-21.5 0-1.4 3.8-21 5.7-24.3.8-3 2.8-15 4.5-20-1.2 1.1 3.5-4.9 4.5-7.6 5.2"/><path fill="#BFDBE0" d="M56 97.8c-6.7-3.2-10.3-7.5-12.4-12.2-2.5.7-5.5 1.2-8.9 1.4-1.3.1-2.7.1-4.1.1-1.7 0-3.4 0-5.2-.1 6 6 13.6 10.7 27.5 10.8H56z"/><path fill="#D4EEF1" d="M46.1 89.9c-.9-1.3-1.8-2.8-2.5-4.3-2.5.7-5.5 1.2-8.9 1.4 2.3 1.2 5.7 2.4 11.4 2.9z"/>
        </svg>
      </g>
      <text x="385.0" y="284" fill="#c9d1d9" font-family="-apple-system, BlinkMacSystemFont, 'Segoe UI', Roboto, sans-serif" font-size="11.5" font-weight="600" text-anchor="middle" letter-spacing="0.2">Docker</text>
    </g>

    <!-- Postman Item -->
    <g style="animation: floatUp 5.3s ease-in-out infinite -1.2s;">
      <g filter="url(#dropShadow)">
        <rect x="469.0" y="210" width="52" height="52" rx="14" fill="#0d1117" stroke="#ff6c37" stroke-width="1.2" stroke-opacity="0.6" />
        <rect x="470.5" y="211.5" width="49" height="49" rx="12.5" fill="none" stroke="#ffffff" stroke-width="0.75" stroke-opacity="0.08" />
        
        <svg x="480.0" y="221.0" width="30" height="30" viewBox="0 0 128 128">
  <path fill="#f37036" d="M113.117 26.066C92.168-1.062 53.191-6.07 26.062 14.883c-27.125 20.953-32.128 59.93-11.175 87.055 20.957 27.124 59.937 32.124 87.058 11.167 27.114-20.953 32.118-59.918 11.172-87.039Zm0 0"/>
  <path fill="#fff" d="M91.078 24.164a10.038 10.038 0 0 0-5.781 2.426 10.028 10.028 0 0 0-1.54 13.465 10.028 10.028 0 0 0 13.276 2.715h.002v.001l.156.155a10.63 10.63 0 0 0 1.965-1.45A10.341 10.341 0 0 0 99 27.107v-.002l-8.844 8.789-.156-.155 8.844-8.793a10.038 10.038 0 0 0-7.766-2.78zM79.434 38.551c-4.24-.007-11.163 4.799-28.067 21.703l.084.086c-.092-.032-.185-.035-.185-.035l-6.364 6.308a1.035 1.035 0 0 0 .93 1.762l10.914-2.328a.307.307 0 0 0 .092-.17l.242.25-3.72 3.69h-.18l-22.086 22.26 7.086 6.824a1.254 1.254 0 0 0 1.476.149 1.327 1.327 0 0 0 .645-1.356l-1.035-4.5a.534.534 0 0 1 0-.62 117.285 117.285 0 0 0 26.738-17.583l-4.535-4.537.086-.014-2.69-2.689.172-.174.182.186-.094.091 7.137 7.293v-.003c13.68-12.954 23.39-23.367 20.865-30.375a3.83 3.83 0 0 0-1.107-2.208v.004a3.778 3.778 0 0 0-.483-.306c-.083-.088-.156-.178-.244-.264l-.066.066a3.778 3.778 0 0 0-.582-.29l.289-.292c-1.796-1.6-3.28-2.924-5.5-2.93zM30.94 92.21l-5.171 5.172v.004a1.03 1.03 0 0 0-.457 1.125 1.035 1.035 0 0 0 .921.789l12.672.875-7.965-7.965z"/>
  <path fill="#f37036" d="M91.95 23.31a11.047 11.047 0 0 0-7.759 3.17 10.988 10.988 0 0 0-2.39 11.641c-4.741-2.03-11.155 1.51-31.106 21.457a.932.932 0 0 0-.037.094 1.242 1.242 0 0 0-.119.062l-6.309 6.364a1.97 1.97 0 0 0-.363 2.324 2.012 2.012 0 0 0 1.707.984l.313-.203 8.424-1.797-4.03 4.067a.873.873 0 0 0-.054.166l-19.75 19.799a.798.798 0 0 0-.192.238l-5.086 5.09a1.967 1.967 0 0 0-.414 2.043 1.995 1.995 0 0 0 1.656 1.265l12.618.88a1.01 1.01 0 0 0 .52-.415.886.886 0 0 0 0-1.035l-.026-.025a2.243 2.243 0 0 0 .705-.58 2.237 2.237 0 0 0 .406-1.876l-.984-4.187a126.725 126.725 0 0 0 26.334-16.861 1.091 1.091 0 0 0 .248.103c.254-.019.492-.128.672-.308 13.55-12.83 21.515-21.622 21.515-28.602a8.03 8.03 0 0 0-.431-2.85 10.957 10.957 0 0 0 3.845.83l-.015.004a11.219 11.219 0 0 0 5.183-1.45.775.775 0 0 0 .004.001.835.835 0 0 0 .617-.055 9.398 9.398 0 0 0 2.07-1.652 10.873 10.873 0 0 0 3.258-7.758 10.873 10.873 0 0 0-3.257-7.758.93.93 0 0 0-.118-.091 11.045 11.045 0 0 0-7.656-3.078z"/>
</svg>
      </g>
      <text x="495.0" y="284" fill="#c9d1d9" font-family="-apple-system, BlinkMacSystemFont, 'Segoe UI', Roboto, sans-serif" font-size="11.5" font-weight="600" text-anchor="middle" letter-spacing="0.2">Postman</text>
    </g>

    <!-- GitHub Item -->
    <g style="animation: floatDown 5.1s ease-in-out infinite -3.4s;">
      <g filter="url(#dropShadow)">
        <rect x="579.0" y="210" width="52" height="52" rx="14" fill="#0d1117" stroke="#f0f6fc" stroke-width="1.2" stroke-opacity="0.6" />
        <rect x="580.5" y="211.5" width="49" height="49" rx="12.5" fill="none" stroke="#ffffff" stroke-width="0.75" stroke-opacity="0.08" />
        
        <svg x="590.0" y="221.0" width="30" height="30" viewBox="0 0 128 128">
  <path fill="#f0f6fc" fill-rule="evenodd" clip-rule="evenodd" d="M64 5.103c-33.347 0-60.388 27.035-60.388 60.388 0 26.682 17.303 49.317 41.297 57.303 3.017.56 4.125-1.31 4.125-2.905 0-1.44-.056-6.197-.082-11.243-16.8 3.653-20.345-7.125-20.345-7.125-2.747-6.98-6.705-8.836-6.705-8.836-5.48-3.748.413-3.67.413-3.67 6.063.425 9.257 6.223 9.257 6.223 5.386 9.23 14.127 6.562 17.573 5.02.542-3.903 2.107-6.568 3.834-8.076-13.413-1.525-27.514-6.704-27.514-29.843 0-6.593 2.36-11.98 6.223-16.21-.628-1.52-2.695-7.662.584-15.98 0 0 5.07-1.623 16.61 6.19C53.7 35 58.867 34.327 64 34.304c5.13.023 10.3.694 15.127 2.033 11.526-7.813 16.59-6.19 16.59-6.19 3.287 8.317 1.22 14.46.593 15.98 3.872 4.23 6.215 9.617 6.215 16.21 0 23.194-14.127 28.3-27.574 29.796 2.167 1.874 4.097 5.55 4.097 11.183 0 8.08-.07 14.583-.07 16.572 0 1.607 1.088 3.49 4.148 2.897 23.98-7.994 41.263-30.622 41.263-57.294C124.388 32.14 97.35 5.104 64 5.104z"/>
</svg>
      </g>
      <text x="605.0" y="284" fill="#c9d1d9" font-family="-apple-system, BlinkMacSystemFont, 'Segoe UI', Roboto, sans-serif" font-size="11.5" font-weight="600" text-anchor="middle" letter-spacing="0.2">GitHub</text>
    </g>

    <!-- Linux Item -->
    <g style="animation: floatUp 5.4s ease-in-out infinite -1.5s;">
      <g filter="url(#dropShadow)">
        <rect x="689.0" y="210" width="52" height="52" rx="14" fill="#0d1117" stroke="#fcc624" stroke-width="1.2" stroke-opacity="0.6" />
        <rect x="690.5" y="211.5" width="49" height="49" rx="12.5" fill="none" stroke="#ffffff" stroke-width="0.75" stroke-opacity="0.08" />
        
        <svg x="700.0" y="221.0" width="30" height="30" viewBox="0 0 24 24">
          <title>Linux</title><path fill="#fcc624" d="M12.504 0c-.155 0-.315.008-.48.021-4.226.333-3.105 4.807-3.17 6.298-.076 1.092-.3 1.953-1.05 3.02-.885 1.051-2.127 2.75-2.716 4.521-.278.832-.41 1.684-.287 2.489a.424.424 0 00-.11.135c-.26.268-.45.6-.663.839-.199.199-.485.267-.797.4-.313.136-.658.269-.864.68-.09.189-.136.394-.132.602 0 .199.027.4.055.536.058.399.116.728.04.97-.249.68-.28 1.145-.106 1.484.174.334.535.47.94.601.81.2 1.91.135 2.774.6.926.466 1.866.67 2.616.47.526-.116.97-.464 1.208-.946.587-.003 1.23-.269 2.26-.334.699-.058 1.574.267 2.577.2.025.134.063.198.114.333l.003.003c.391.778 1.113 1.132 1.884 1.071.771-.06 1.592-.536 2.257-1.306.631-.765 1.683-1.084 2.378-1.503.348-.199.629-.469.649-.853.023-.4-.2-.811-.714-1.376v-.097l-.003-.003c-.17-.2-.25-.535-.338-.926-.085-.401-.182-.786-.492-1.046h-.003c-.059-.054-.123-.067-.188-.135a.357.357 0 00-.19-.064c.431-1.278.264-2.55-.173-3.694-.533-1.41-1.465-2.638-2.175-3.483-.796-1.005-1.576-1.957-1.56-3.368.026-2.152.236-6.133-3.544-6.139zm.529 3.405h.013c.213 0 .396.062.584.198.19.135.33.332.438.533.105.259.158.459.166.724 0-.02.006-.04.006-.06v.105a.086.086 0 01-.004-.021l-.004-.024a1.807 1.807 0 01-.15.706.953.953 0 01-.213.335.71.71 0 00-.088-.042c-.104-.045-.198-.064-.284-.133a1.312 1.312 0 00-.22-.066c.05-.06.146-.133.183-.198.053-.128.082-.264.088-.402v-.02a1.21 1.21 0 00-.061-.4c-.045-.134-.101-.2-.183-.333-.084-.066-.167-.132-.267-.132h-.016c-.093 0-.176.03-.262.132a.8.8 0 00-.205.334 1.18 1.18 0 00-.09.4v.019c.002.089.008.179.02.267-.193-.067-.438-.135-.607-.202a1.635 1.635 0 01-.018-.2v-.02a1.772 1.772 0 01.15-.768c.082-.22.232-.406.43-.533a.985.985 0 01.594-.2zm-2.962.059h.036c.142 0 .27.048.399.135.146.129.264.288.344.465.09.199.14.4.153.667v.004c.007.134.006.2-.002.266v.08c-.03.007-.056.018-.083.024-.152.055-.274.135-.393.2.012-.09.013-.18.003-.267v-.015c-.012-.133-.04-.2-.082-.333a.613.613 0 00-.166-.267.248.248 0 00-.183-.064h-.021c-.071.006-.13.04-.186.132a.552.552 0 00-.12.27.944.944 0 00-.023.33v.015c.012.135.037.2.08.334.046.134.098.2.166.268.01.009.02.018.034.024-.07.057-.117.07-.176.136a.304.304 0 01-.131.068 2.62 2.62 0 01-.275-.402 1.772 1.772 0 01-.155-.667 1.759 1.759 0 01.08-.668 1.43 1.43 0 01.283-.535c.128-.133.26-.2.418-.2zm1.37 1.706c.332 0 .733.065 1.216.399.293.2.523.269 1.052.468h.003c.255.136.405.266.478.399v-.131a.571.571 0 01.016.47c-.123.31-.516.643-1.063.842v.002c-.268.135-.501.333-.775.465-.276.135-.588.292-1.012.267a1.139 1.139 0 01-.448-.067 3.566 3.566 0 01-.322-.198c-.195-.135-.363-.332-.612-.465v-.005h-.005c-.4-.246-.616-.512-.686-.71-.07-.268-.005-.47.193-.6.224-.135.38-.271.483-.336.104-.074.143-.102.176-.131h.002v-.003c.169-.202.436-.47.839-.601.139-.036.294-.065.466-.065zm2.8 2.142c.358 1.417 1.196 3.475 1.735 4.473.286.534.855 1.659 1.102 3.024.156-.005.33.018.513.064.646-1.671-.546-3.467-1.089-3.966-.22-.2-.232-.335-.123-.335.59.534 1.365 1.572 1.646 2.757.13.535.16 1.104.021 1.67.067.028.135.06.205.067 1.032.534 1.413.938 1.23 1.537v-.043c-.06-.003-.12 0-.18 0h-.016c.151-.467-.182-.825-1.065-1.224-.915-.4-1.646-.336-1.77.465-.008.043-.013.066-.018.135-.068.023-.139.053-.209.064-.43.268-.662.669-.793 1.187-.13.533-.17 1.156-.205 1.869v.003c-.02.334-.17.838-.319 1.35-1.5 1.072-3.58 1.538-5.348.334a2.645 2.645 0 00-.402-.533 1.45 1.45 0 00-.275-.333c.182 0 .338-.03.465-.067a.615.615 0 00.314-.334c.108-.267 0-.697-.345-1.163-.345-.467-.931-.995-1.788-1.521-.63-.4-.986-.87-1.15-1.396-.165-.534-.143-1.085-.015-1.645.245-1.07.873-2.11 1.274-2.763.107-.065.037.135-.408.974-.396.751-1.14 2.497-.122 3.854a8.123 8.123 0 01.647-2.876c.564-1.278 1.743-3.504 1.836-5.268.048.036.217.135.289.202.218.133.38.333.59.465.21.201.477.335.876.335.039.003.075.006.11.006.412 0 .73-.134.997-.268.29-.134.52-.334.74-.4h.005c.467-.135.835-.402 1.044-.7zm2.185 8.958c.037.6.343 1.245.882 1.377.588.134 1.434-.333 1.791-.765l.211-.01c.315-.007.577.01.847.268l.003.003c.208.199.305.53.391.876.085.4.154.78.409 1.066.486.527.645.906.636 1.14l.003-.007v.018l-.003-.012c-.015.262-.185.396-.498.595-.63.401-1.746.712-2.457 1.57-.618.737-1.37 1.14-2.036 1.191-.664.053-1.237-.2-1.574-.898l-.005-.003c-.21-.4-.12-1.025.056-1.69.176-.668.428-1.344.463-1.897.037-.714.076-1.335.195-1.814.12-.465.308-.797.641-.984l.045-.022zm-10.814.049h.01c.053 0 .105.005.157.014.376.055.706.333 1.023.752l.91 1.664.003.003c.243.533.754 1.064 1.189 1.637.434.598.77 1.131.729 1.57v.006c-.057.744-.48 1.148-1.125 1.294-.645.135-1.52.002-2.395-.464-.968-.536-2.118-.469-2.857-.602-.369-.066-.61-.2-.723-.4-.11-.2-.113-.602.123-1.23v-.004l.002-.003c.117-.334.03-.752-.027-1.118-.055-.401-.083-.71.043-.94.16-.334.396-.4.69-.533.294-.135.64-.202.915-.47h.002v-.002c.256-.268.445-.601.668-.838.19-.201.38-.336.663-.336zm7.159-9.074c-.435.201-.945.535-1.488.535-.542 0-.97-.267-1.28-.466-.154-.134-.28-.268-.373-.335-.164-.134-.144-.333-.074-.333.109.016.129.134.199.2.096.066.215.2.36.333.292.2.68.467 1.167.467.485 0 1.053-.267 1.398-.466.195-.135.445-.334.648-.467.156-.136.149-.267.279-.267.128.016.034.134-.147.332a8.097 8.097 0 01-.69.468zm-1.082-1.583V5.64c-.006-.02.013-.042.029-.05.074-.043.18-.027.26.004.063 0 .16.067.15.135-.006.049-.085.066-.135.066-.055 0-.092-.043-.141-.068-.052-.018-.146-.008-.163-.065zm-.551 0c-.02.058-.113.049-.166.066-.047.025-.086.068-.14.068-.05 0-.13-.02-.136-.068-.01-.066.088-.133.15-.133.08-.031.184-.047.259-.005.019.009.036.03.03.05v.02h.003z"/>
        </svg>
      </g>
      <text x="715.0" y="284" fill="#c9d1d9" font-family="-apple-system, BlinkMacSystemFont, 'Segoe UI', Roboto, sans-serif" font-size="11.5" font-weight="600" text-anchor="middle" letter-spacing="0.2">Linux</text>
    </g>

    <!-- CachyOS Item -->
    <g style="animation: floatDown 5.2s ease-in-out infinite -3.8s;">
      <g filter="url(#dropShadow)">
        <rect x="799.0" y="210" width="52" height="52" rx="14" fill="#0d1117" stroke="#00aa88" stroke-width="1.2" stroke-opacity="0.6" />
        <rect x="800.5" y="211.5" width="49" height="49" rx="12.5" fill="none" stroke="#ffffff" stroke-width="0.75" stroke-opacity="0.08" />
        
        <svg x="810.0" y="221.0" width="30" height="30" viewBox="0 0 24 24">
          <title>CachyOS</title><path fill="#00f5c4" d="M5.301 2.646 0 11.771l5.541 9.583h11.486l2.904-5.017H8.102l-2.56-4.429L8.067 7.54h6.063l2.83-4.893ZM20.058 4.12a.748.748 0 0 0 0 1.496.748.748 0 0 0 0-1.496m-1.983 4.303a1.45 1.45 0 0 0 0 2.9 1.45 1.45 0 0 0 0-2.9m4.02 3.98a1.904 1.904 0 0 0 0 3.809 1.904 1.904 0 0 0 0-3.81"/>
        </svg>
      </g>
      <text x="825.0" y="284" fill="#c9d1d9" font-family="-apple-system, BlinkMacSystemFont, 'Segoe UI', Roboto, sans-serif" font-size="11.5" font-weight="600" text-anchor="middle" letter-spacing="0.2">CachyOS</text>
    </g>
</svg>